<?xml version="1.0" standalone="no"?>
<!DOCTYPE svg PUBLIC "-//W3C//DTD SVG 20010904//EN"
 "http://www.w3.org/TR/2001/REC-SVG-20010904/DTD/svg10.dtd">
<svg version="1.0" xmlns="http://www.w3.org/2000/svg"
 width="604.000000pt" height="593.000000pt" viewBox="0 0 604.000000 593.000000"
 preserveAspectRatio="xMidYMid meet">

<g transform="translate(0.000000,593.000000) scale(0.100000,-0.100000)"
fill="#000000" stroke="none">
<path d="M2783 5367 c-85 -90 -409 -546 -529 -743 -9 -15 -32 -19 -145 -25
-371 -20 -703 -52 -724 -69 -7 -6 -8 -38 -4 -92 4 -46 15 -184 24 -308 15
-200 15 -225 1 -235 -13 -10 -12 -14 5 -29 12 -9 18 -23 16 -30 -3 -7 -2 -31
3 -54 6 -35 3 -51 -21 -100 -16 -31 -29 -62 -29 -68 0 -6 -13 -23 -30 -37 -16
-15 -30 -24 -30 -21 0 4 -9 -1 -20 -11 -38 -35 -20 -35 28 0 37 26 58 52 88
111 21 42 51 89 65 104 32 35 55 32 152 -21 67 -37 74 -39 166 -40 140 -1 185
-9 189 -35 2 -11 -4 -27 -13 -34 -8 -7 -15 -17 -15 -23 0 -6 -10 -21 -22 -34
l-21 -23 26 0 c15 0 41 9 59 20 37 22 34 25 -9 10 l-28 -10 25 21 25 22 -25
-7 c-25 -7 -25 -7 -5 11 12 10 20 31 20 48 0 32 20 65 40 65 7 0 16 7 19 16 5
14 4 15 -9 4 -13 -11 -13 -8 0 30 23 65 87 203 100 216 7 7 18 26 25 43 7 17
16 31 21 31 5 0 9 6 9 13 0 18 34 57 49 57 6 0 11 4 11 10 0 20 90 113 90 93
0 -4 4 -3 8 2 10 15 57 44 177 109 11 6 22 14 25 17 6 7 99 38 134 45 14 2 36
8 48 13 28 10 203 3 203 -9 0 -1 16 -4 35 -7 19 -2 45 -10 58 -17 24 -13 24
-13 4 -18 -12 -3 -26 0 -32 7 -6 8 -18 11 -26 8 -8 -3 -14 -1 -14 4 0 5 -7 10
-17 10 -12 0 -9 -7 12 -24 22 -19 30 -22 36 -11 5 7 9 8 9 3 0 -6 15 -18 33
-28 17 -10 40 -29 49 -41 17 -24 17 -24 -24 -30 -25 -4 -45 -2 -54 5 -8 7 -17
9 -21 5 -3 -3 -1 -6 5 -6 7 0 12 -5 12 -11 0 -5 -10 -3 -22 5 -33 24 -55 20
-27 -4 l24 -20 -34 14 c-19 8 -38 22 -42 32 -4 11 -8 13 -8 6 -1 -9 -8 -11
-23 -6 -13 4 -35 7 -49 6 -36 -3 -65 32 -40 47 6 4 -6 7 -27 7 -20 1 -48 5
-62 9 -22 7 -23 6 -13 -7 14 -16 8 -29 -10 -23 -7 2 -24 6 -39 9 -45 10 -23
-19 25 -34 23 -7 53 -20 67 -30 14 -10 51 -23 82 -30 32 -7 55 -17 52 -22 -3
-4 2 -8 11 -8 9 0 13 5 9 11 -5 8 -1 8 13 0 11 -6 23 -8 26 -5 3 3 15 0 27 -6
12 -6 19 -14 15 -18 -8 -8 -114 -9 -110 -1 2 3 -16 15 -40 27 -26 13 -45 17
-45 11 0 -6 -7 -9 -15 -5 -8 3 -15 1 -15 -5 0 -6 -5 -7 -10 -4 -6 4 -8 10 -5
15 3 4 -2 11 -11 14 -22 8 -26 8 -19 -4 3 -5 1 -10 -4 -10 -6 0 -11 5 -11 10
0 6 -13 10 -30 10 -31 0 -37 -9 -19 -27 7 -7 -4 -7 -40 0 -28 5 -51 14 -51 18
0 12 -27 12 -34 0 -3 -5 21 -22 54 -37 32 -16 59 -34 60 -41 0 -12 -30 -10
-50 2 -6 3 -10 -1 -10 -9 0 -9 13 -18 35 -22 42 -8 56 -22 16 -16 -16 2 -32
-1 -36 -9 -5 -7 -4 -10 2 -6 6 4 14 0 17 -9 5 -14 16 -15 65 -10 38 4 62 3 66
-4 3 -5 -1 -10 -10 -10 -10 0 -13 -5 -9 -12 4 -7 3 -8 -4 -4 -7 4 -42 11 -80
15 -37 5 -75 11 -84 16 -10 4 -18 3 -18 -2 0 -13 49 -35 61 -28 5 4 9 2 9 -3
0 -6 10 -8 23 -6 12 2 2 -3 -23 -12 -37 -13 -53 -13 -92 -4 -26 6 -57 9 -68 5
-15 -5 -28 -1 -41 14 -11 12 -24 21 -29 21 -15 0 -12 28 3 33 6 2 -2 7 -20 11
-18 4 -40 3 -50 -3 -16 -9 -14 -11 15 -17 33 -7 42 -19 20 -27 -7 -3 2 -10 20
-17 18 -7 31 -14 29 -16 -2 -3 -16 0 -31 5 -15 6 -26 7 -26 1 0 -4 8 -11 18
-13 9 -3 -9 -4 -40 -2 -32 2 -58 2 -58 -1 0 -2 18 -11 40 -20 22 -9 37 -20 34
-25 -5 -8 19 -14 41 -9 6 1 7 -2 3 -6 -4 -4 -2 -14 5 -22 10 -13 9 -14 -2 -8
-7 5 -30 10 -50 12 -20 3 -48 6 -63 9 -16 2 -28 0 -28 -5 0 -6 15 -10 34 -10
19 0 38 -4 41 -10 3 -5 1 -10 -6 -10 -22 0 -4 -9 31 -16 19 -3 51 -6 70 -5 26
0 31 -2 20 -9 -13 -8 -12 -10 3 -10 9 0 17 -4 17 -9 0 -5 10 -7 22 -3 18 4 19
6 5 11 -15 5 -14 8 6 20 12 7 19 10 14 5 -4 -4 5 -14 20 -21 20 -9 22 -12 8
-10 -12 1 -19 -3 -18 -10 2 -7 -6 -13 -17 -13 -14 0 -18 -5 -13 -17 5 -15 4
-16 -8 -7 -8 7 -22 8 -34 3 -20 -8 -20 -8 1 -8 11 -1 24 -5 30 -10 5 -5 29
-12 54 -15 25 -3 47 -11 48 -16 2 -6 10 -10 17 -10 8 0 11 -7 8 -20 -4 -15
-14 -20 -39 -21 -37 -2 -39 -2 -69 -13 -53 -20 -73 -25 -105 -25 -91 -1 -106
1 -114 9 -7 7 -2 10 12 10 12 0 22 5 22 11 0 7 -7 8 -17 4 -10 -4 -30 -10 -45
-13 -16 -2 -28 -9 -28 -14 0 -5 4 -7 9 -4 5 3 22 -1 37 -9 25 -13 26 -15 8
-15 -25 0 -49 -24 -39 -40 3 -5 -1 -10 -10 -10 -9 0 -14 -4 -11 -9 3 -5 25 -5
48 0 24 4 47 8 51 9 5 0 6 4 3 9 -9 14 59 -4 85 -23 13 -9 18 -16 11 -16 -7 0
-10 -4 -7 -10 3 -6 -1 -7 -10 -4 -24 10 -70 -5 -57 -18 8 -8 29 -6 76 6 76 19
110 21 86 6 -12 -8 -12 -10 -1 -10 10 0 11 -3 2 -14 -9 -11 -9 -15 1 -18 7 -3
-4 -11 -24 -18 -21 -8 -38 -19 -38 -25 0 -7 -17 -13 -37 -14 -21 -1 -54 -6
-73 -11 l-35 -10 39 5 c22 2 35 1 30 -4 -26 -22 -145 -64 -189 -67 l-50 -3 50
20 c43 16 45 19 18 16 -38 -4 -35 3 10 20 31 12 31 13 -18 9 -44 -3 -90 -11
-90 -16 0 -1 -10 -3 -22 -6 -17 -3 -21 0 -17 11 4 10 0 15 -12 16 -11 0 -14 3
-6 6 6 2 9 10 6 15 -4 6 -2 8 4 4 6 -3 13 -2 17 4 9 14 72 40 109 45 17 2 32
5 34 6 1 1 7 2 12 3 15 2 12 21 -2 20 -23 -1 -73 -17 -85 -26 -6 -5 -40 -10
-75 -12 -34 -2 -71 -7 -81 -11 -10 -4 -25 -2 -35 6 -16 13 -16 12 -3 -4 13
-16 13 -20 0 -28 -8 -5 -20 -9 -27 -9 -17 0 -77 -131 -64 -139 5 -4 2 -35 -8
-76 -21 -86 -19 -230 5 -395 4 -30 6 -55 4 -56 -2 0 4 -8 14 -18 9 -10 17 -24
17 -33 0 -10 6 -13 16 -9 13 5 15 2 9 -11 -4 -10 -8 -27 -8 -38 -1 -31 54
-163 79 -191 13 -13 24 -27 24 -29 0 -3 0 -11 0 -17 0 -9 4 -8 10 2 8 12 10
10 10 -10 0 -14 14 -39 31 -58 16 -17 35 -47 41 -65 6 -17 19 -41 28 -52 10
-11 21 -30 25 -43 4 -13 9 -21 13 -18 7 8 42 -24 42 -37 0 -6 -3 -8 -6 -4 -3
3 -23 -4 -43 -17 -20 -13 -75 -42 -123 -64 -85 -40 -117 -62 -60 -42 63 24
250 125 245 133 -3 5 4 4 15 -2 12 -6 24 -16 28 -22 3 -6 25 -20 48 -30 22
-10 35 -19 27 -19 -7 0 -45 -15 -85 -34 -39 -19 -89 -41 -111 -51 -22 -9 -49
-20 -60 -25 -11 -5 -43 -18 -72 -29 l-52 -20 -11 42 c-17 66 -37 103 -71 131
-35 29 -40 29 -129 -12 -42 -20 -71 -26 -126 -26 -62 0 -80 4 -135 33 -35 19
-77 35 -94 36 -16 2 -37 3 -46 4 -8 0 -20 16 -26 34 -5 17 -8 22 -6 10 5 -32
-12 -36 -62 -14 -107 47 -238 156 -279 233 -12 22 -31 40 -51 47 -33 11 -75
43 -75 55 0 14 37 44 88 71 56 31 62 44 11 26 -24 -8 -36 -8 -47 2 -13 10 -15
9 -10 -5 5 -11 -5 -24 -33 -43 -36 -26 -41 -27 -81 -16 -24 7 -49 13 -55 13
-7 1 -13 6 -13 11 0 6 -3 8 -6 5 -3 -4 -19 -2 -35 2 -16 5 -29 5 -29 0 0 -5
31 -19 70 -31 100 -31 104 -40 45 -99 -61 -62 -46 -66 17 -5 26 25 52 45 58
45 6 0 28 -11 50 -25 22 -14 40 -23 40 -19 0 3 7 -1 15 -10 8 -8 15 -18 15
-21 0 -11 74 -115 82 -115 4 0 20 -12 35 -26 38 -36 127 -92 157 -100 49 -12
51 -30 7 -60 -23 -15 -41 -29 -41 -31 0 -3 12 3 28 12 15 10 37 25 50 33 25
17 24 21 24 -83 l0 -80 9 79 c4 44 12 83 17 88 4 4 28 4 52 0 l45 -8 6 -131
c5 -116 9 -139 33 -187 50 -101 142 -156 264 -156 51 0 60 -3 70 -23 11 -21
11 -21 6 4 -5 23 -2 27 25 32 43 9 118 81 131 126 5 20 10 55 10 77 0 49 9 58
81 83 77 26 291 122 310 138 9 7 19 10 24 6 4 -5 4 2 0 15 -11 38 26 23 48
-18 10 -19 26 -41 35 -48 43 -33 180 -46 211 -18 9 9 22 16 28 16 19 0 44 -37
50 -74 3 -20 10 -39 14 -42 5 -3 9 -12 9 -20 0 -10 -13 -14 -52 -14 -63 0
-143 -41 -178 -90 -51 -72 -62 -144 -36 -240 6 -23 3 -26 -46 -44 -153 -54
-319 -86 -451 -86 l-84 0 -30 38 c-16 20 -42 58 -57 85 -15 26 -30 47 -33 47
-9 0 49 -93 85 -139 l36 -44 153 7 c84 3 153 3 153 -1 0 -5 -7 -50 -15 -102
-10 -68 -24 -114 -52 -170 -30 -61 -38 -90 -41 -146 -6 -115 36 -185 142 -235
85 -40 143 -51 265 -49 62 1 118 -4 136 -11 42 -16 181 -40 237 -40 159 0 306
84 358 205 40 93 35 183 -21 407 -16 65 -29 122 -29 127 0 5 26 12 58 16 320
33 538 105 775 258 48 31 94 57 101 57 8 0 19 7 26 14 6 8 27 20 46 26 19 7
45 22 57 33 13 12 36 33 52 47 36 30 76 77 56 65 -10 -5 -12 -4 -7 3 4 7 13
12 21 12 7 0 30 21 51 46 22 26 47 55 56 66 10 11 20 29 23 39 4 11 11 19 16
19 5 0 9 5 9 11 0 6 7 17 15 25 17 17 15 39 -11 104 -20 52 -74 140 -85 140
-4 0 -8 8 -8 18 0 25 -5 43 -23 79 -18 36 -12 52 9 25 14 -16 14 -16 9 3 -6
19 -5 19 8 2 8 -10 13 -29 11 -42 -1 -14 2 -22 6 -19 5 3 6 -8 3 -24 -5 -24 0
-36 25 -63 l30 -34 -9 35 c-14 48 -13 49 9 17 16 -26 19 -27 26 -10 5 10 7 25
6 34 -1 9 5 22 14 29 12 10 15 10 15 -4 0 -8 9 -30 20 -48 l19 -32 -6 39 c-8
54 -32 105 -66 143 -10 10 -17 23 -17 28 0 6 -7 19 -15 30 -13 16 -14 16 -9 2
4 -11 1 -18 -5 -18 -9 0 -9 -5 -1 -20 6 -11 8 -20 5 -20 -10 0 -43 82 -55 135
-6 28 -18 56 -27 63 -9 6 -14 12 -10 12 4 0 2 11 -3 24 -7 19 -4 28 16 45 l25
21 18 -42 c10 -24 21 -53 25 -65 7 -22 36 -52 36 -36 0 5 -6 17 -14 28 -7 11
-14 25 -15 30 -5 29 -15 61 -21 70 -4 6 -11 30 -15 54 -5 30 -10 39 -16 30 -5
-8 -9 -9 -9 -4 0 6 5 17 10 25 6 10 3 25 -11 49 -32 55 -14 47 25 -11 42 -62
92 -118 105 -118 5 0 11 -6 14 -12 2 -7 8 -10 12 -6 9 8 -7 37 -20 35 -5 -1
-17 19 -27 44 l-17 47 27 -2 c15 -1 33 -5 40 -10 11 -7 11 -4 1 12 -7 12 -15
19 -18 17 -2 -3 -15 2 -29 11 -13 8 -27 13 -30 9 -4 -3 0 -10 8 -15 12 -8 11
-10 -5 -10 -12 0 -36 18 -58 45 -34 41 -69 63 -51 33 5 -9 2 -9 -9 1 -13 11
-17 11 -17 1 0 -17 -13 -4 -16 15 -2 11 5 13 29 8 22 -5 28 -3 23 6 -5 7 0 21
11 33 10 12 13 18 7 15 -13 -7 -25 13 -31 51 -6 35 -22 72 -30 71 -36 -6 -59
13 -30 24 17 6 67 -38 72 -64 6 -31 15 -36 15 -9 0 13 -7 31 -16 41 -19 21
-11 54 10 46 12 -5 13 0 4 24 -6 17 -8 33 -4 36 3 4 6 1 6 -6 0 -7 6 -19 13
-26 25 -29 35 -42 47 -65 11 -20 10 -22 -5 -16 -13 4 -16 2 -12 -9 4 -8 1 -17
-5 -21 -6 -4 -8 -3 -4 4 3 6 2 13 -4 17 -20 12 -15 -40 7 -70 12 -15 14 -16
10 -2 -4 9 -2 17 3 17 5 0 11 9 15 19 3 11 11 19 18 17 7 -1 9 -1 5 1 -5 3 -8
25 -8 49 0 49 15 52 25 5 3 -16 12 -35 20 -41 11 -9 12 -7 7 12 -5 21 -4 22
11 9 27 -22 19 3 -8 27 -14 12 -25 30 -25 39 0 10 -3 28 -6 39 -5 19 -2 22 21
20 22 -1 36 -14 67 -58 21 -32 35 -58 31 -58 -10 0 19 -20 30 -20 4 0 3 9 -3
20 -6 11 -8 20 -5 20 3 0 -4 10 -17 23 -13 12 -17 17 -8 11 8 -6 32 -17 52
-23 21 -7 41 -18 45 -24 12 -20 12 -37 0 -37 -7 -1 -1 -10 12 -21 14 -11 32
-17 45 -14 12 3 15 2 9 -1 -7 -3 -13 -10 -13 -15 0 -6 6 -7 13 -3 9 6 9 5 0
-7 -11 -13 -9 -15 8 -15 13 1 31 -13 47 -34 l27 -34 -35 22 c-19 12 -34 26
-33 31 1 5 -5 8 -15 7 -9 0 -21 9 -27 22 -5 12 -14 21 -20 19 -17 -6 -45 36
-33 51 8 9 5 12 -13 12 -19 0 -21 -2 -9 -10 8 -5 12 -10 7 -10 -19 0 68 -110
87 -110 6 0 28 -17 49 -37 26 -25 41 -34 44 -25 3 6 9 9 15 6 6 -4 1 -12 -13
-20 l-24 -13 23 -1 c13 0 33 -11 46 -25 30 -33 36 -32 26 4 -6 23 -5 29 5 24
9 -3 13 2 12 15 0 12 -4 20 -8 19 -9 -3 -109 82 -109 93 0 4 9 6 20 3 11 -3
20 0 20 6 0 6 -5 11 -12 11 -7 0 -23 11 -37 24 -31 29 -68 38 -63 16 3 -12 0
-12 -14 2 -16 16 -11 44 7 33 5 -3 6 1 2 10 -4 12 -8 13 -13 4 -6 -8 -11 -5
-20 11 -11 21 -11 22 14 16 27 -7 27 -6 10 19 -9 14 -12 25 -8 25 5 0 1 5 -9
11 -9 5 -22 7 -27 4 -6 -3 -10 -1 -10 4 0 7 -7 7 -20 -1 -20 -13 -20 -13 2
-20 22 -6 22 -6 2 -7 -11 -1 -29 8 -39 19 -10 11 -25 20 -34 21 -9 0 -27 14
-41 32 -14 17 -19 27 -11 23 8 -5 17 -3 22 5 7 11 9 10 9 -3 0 -10 5 -18 11
-18 6 0 9 7 5 15 -3 8 0 15 7 15 7 0 -1 8 -18 18 -16 11 -37 27 -45 37 -14 17
-13 18 25 11 l40 -8 -19 21 c-16 18 -17 21 -3 21 9 0 27 -4 42 -10 17 -7 24
-7 20 0 -3 6 -12 10 -19 10 -8 0 -19 7 -26 15 -11 13 -7 15 23 15 20 0 39 5
42 10 5 8 11 7 21 -1 8 -6 17 -9 21 -5 3 3 1 6 -5 6 -7 0 -12 6 -12 13 0 6
-15 18 -32 25 -18 7 -41 18 -50 23 -24 12 -31 11 -22 -3 4 -7 3 -8 -5 -4 -6 4
-9 12 -6 17 4 5 -4 10 -17 10 -18 1 -19 2 -5 6 29 8 13 28 -20 25 -22 -2 -38
6 -66 32 -27 26 -33 35 -22 40 8 3 15 2 15 -3 0 -4 6 -8 13 -9 36 -3 53 -8 59
-17 5 -6 8 -6 8 1 0 18 -22 32 -62 39 -21 4 -38 11 -38 17 0 5 4 6 10 3 6 -3
7 1 4 9 -3 8 -13 18 -23 21 -9 3 -17 14 -17 24 0 26 46 39 58 17 5 -9 16 -16
23 -16 8 0 15 -4 15 -10 0 -5 10 -10 23 -11 21 0 21 -1 2 -8 -16 -7 -13 -9 17
-15 21 -4 41 -13 45 -19 5 -7 22 -19 40 -26 65 -26 225 -235 247 -324 3 -15
18 -52 32 -83 14 -30 28 -77 31 -105 3 -27 9 -49 13 -49 7 0 275 305 341 390
24 30 50 62 58 70 26 26 111 162 111 176 0 20 -37 40 -125 68 -144 44 -188 54
-345 81 -221 37 -312 55 -339 66 -23 9 -24 13 -18 82 4 40 15 148 26 240 27
225 39 596 21 607 -17 11 -62 4 -180 -27 -122 -31 -648 -210 -715 -242 -11 -6
-49 -22 -84 -36 -73 -28 -67 -30 -140 50 -25 27 -102 106 -171 175 -310 311
-541 510 -590 510 -10 0 -40 -24 -67 -53z m397 -1017 c0 -13 -5 -17 -14 -14
-24 9 -28 34 -6 34 13 0 20 -7 20 -20z m80 -14 c0 -6 -4 -17 -9 -25 -7 -11
-10 -9 -16 8 -3 12 -10 19 -15 16 -4 -3 -10 1 -13 8 -4 10 3 12 24 9 16 -2 29
-9 29 -16z m125 -26 c-7 -12 -45 -14 -45 -2 0 4 11 9 26 10 14 1 23 -2 19 -8z
m233 -40 c15 -10 15 -11 0 -6 -9 2 -22 -2 -29 -10 -11 -14 -14 -14 -23 -1 -6
7 -23 13 -38 13 -27 -2 -34 4 -22 16 9 9 93 0 112 -12z m-714 2 c2 -4 -5 -9
-17 -9 -17 -2 -19 0 -7 7 18 12 18 12 24 2z m366 -47 c20 -21 21 -25 6 -25 -9
0 -14 5 -11 10 3 6 -1 13 -9 16 -9 3 -16 10 -16 15 0 14 4 11 30 -16z m245 5
c5 -9 -50 -40 -70 -40 -15 0 -1 21 23 34 33 18 39 19 47 6z m215 0 c12 -8 11
-10 -7 -10 -13 0 -23 5 -23 10 0 13 11 13 30 0z m57 -25 c0 -8 -6 -15 -13 -15
-6 0 -14 7 -18 15 -3 10 1 15 13 15 10 0 18 -7 18 -15z m-587 -5 c0 -5 -5 -10
-11 -10 -5 0 -7 5 -4 10 3 6 8 10 11 10 2 0 4 -4 4 -10z m630 -23 c0 -5 -4 -5
-10 -2 -5 3 -10 14 -10 23 0 15 2 15 10 2 5 -8 10 -19 10 -23z m-930 -5 c0 -5
-13 -9 -30 -9 -16 0 -30 4 -30 9 0 4 14 8 30 8 17 0 30 -4 30 -8z m708 -10 c4
-12 -21 -13 -68 -3 -3 1 2 6 10 11 20 13 52 8 58 -8z m337 -13 c33 -16 50 -27
38 -24 -17 5 -22 3 -17 -8 3 -8 0 -18 -7 -23 -7 -4 -10 -3 -6 3 6 9 -31 42
-78 70 -42 25 11 12 70 -18z m-1163 3 c-9 -6 -5 -12 13 -20 14 -7 32 -12 40
-12 8 0 15 -6 15 -13 0 -14 -84 -16 -87 -2 -1 4 -7 12 -15 16 -10 7 -10 9 0 9
6 0 12 7 12 15 0 8 8 15 18 15 12 0 14 -2 4 -8z m466 -5 c8 -9 7 -24 -2 -51
-10 -29 -15 -34 -20 -21 -3 10 -2 23 4 30 8 9 8 15 0 20 -12 8 -14 35 -1 35 5
0 13 -6 19 -13z m596 -20 c6 3 8 3 4 -2 -4 -4 -3 -16 3 -26 7 -13 6 -19 -2
-19 -6 0 -13 9 -16 19 -3 11 -16 22 -29 25 -13 4 -24 11 -24 16 0 5 12 3 27
-5 15 -8 31 -11 37 -8z m-714 -17 c0 -6 -4 -10 -9 -10 -5 0 -18 -3 -28 -7 -16
-6 -16 -5 -5 10 8 9 11 21 7 28 -6 8 -2 8 14 0 11 -7 21 -16 21 -21z m-130 -4
c0 -2 -13 -6 -29 -8 -17 -2 -28 -1 -25 4 5 8 54 12 54 4z m374 -5 c4 -5 1 -11
-6 -13 -7 -3 -13 -15 -13 -28 0 -17 -7 -26 -25 -30 -22 -5 -23 -7 -6 -13 10
-4 16 -10 13 -14 -4 -3 -13 0 -22 7 -12 10 -13 16 -4 26 9 11 8 18 -1 29 -11
13 -8 16 19 21 17 4 28 10 25 15 -3 5 -1 9 5 9 5 0 12 -4 15 -9z m221 -1 c4
-7 -3 -10 -19 -8 -35 5 -45 18 -13 18 14 0 29 -5 32 -10z m479 -5 c45 -19 46
-32 2 -27 -23 3 -36 10 -39 23 -6 23 -8 23 37 4z m-1067 -16 c-10 -6 -14 -15
-10 -22 13 -20 10 -31 -13 -55 -14 -14 -25 -19 -29 -13 -3 6 -2 11 3 11 6 0
13 7 16 16 5 14 4 15 -8 4 -9 -6 -21 -10 -28 -7 -8 4 -7 6 5 6 9 1 17 7 17 15
0 7 7 19 15 26 8 7 13 15 11 19 -3 4 5 8 17 8 20 2 20 1 4 -8z m128 -10 c-8
-12 -35 -12 -35 0 0 11 22 20 33 14 4 -2 5 -9 2 -14z m882 6 c19 -8 44 -15 54
-15 11 0 19 -4 19 -10 0 -5 6 -10 13 -10 17 -1 107 -68 107 -80 0 -6 -8 -2
-18 8 -11 11 -33 25 -50 33 -18 8 -32 17 -32 21 0 4 -7 4 -17 1 -11 -5 -14 -3
-8 6 5 10 2 11 -14 6 -11 -3 -21 -3 -21 2 0 5 -18 16 -40 26 -22 9 -40 19 -40
22 0 8 8 6 47 -10z m-437 -33 c13 -13 13 -14 -5 -7 -11 4 -35 13 -53 20 -18 6
-30 14 -26 17 8 9 66 -12 84 -30z m-362 2 c0 -14 10 -40 22 -57 l23 -32 -26
24 c-15 14 -27 30 -27 37 0 7 -8 18 -17 23 -11 6 -13 11 -5 11 7 0 10 5 7 10
-3 6 0 10 8 10 9 0 15 -10 15 -26z m-355 -20 c-5 -13 -63 -35 -72 -28 -2 2 7
14 20 27 25 24 61 25 52 1z m177 22 c0 -3 -4 -8 -10 -11 -5 -3 -10 -1 -10 4 0
6 5 11 10 11 6 0 10 -2 10 -4z m895 -16 c3 -6 -1 -7 -9 -4 -18 7 -21 14 -7 14
6 0 13 -4 16 -10z m-1474 -9 c4 -1 10 -9 14 -18 5 -15 4 -16 -6 -5 -7 6 -25
12 -40 12 -15 0 -30 4 -33 9 -5 7 30 8 65 2z m209 -24 c19 -6 42 -10 50 -9 10
1 11 0 2 -4 -7 -3 -17 -14 -22 -24 -8 -16 -6 -17 25 -14 32 3 34 1 25 -16 -6
-11 -22 -23 -35 -26 -13 -3 -29 -12 -35 -19 -9 -11 -4 -12 22 -6 18 4 41 7 51
5 9 -1 15 1 12 6 -8 13 32 19 45 6 6 -6 11 -6 9 -1 -4 23 15 75 30 79 83 23
112 11 41 -18 -29 -11 -40 -22 -40 -37 0 -16 4 -19 20 -14 24 8 27 -10 4 -19
-11 -4 -14 -13 -11 -27 4 -16 -1 -23 -24 -31 -22 -8 -28 -15 -24 -28 3 -10 1
-21 -5 -25 -5 -3 -10 -1 -10 5 0 6 -5 8 -10 5 -6 -4 -8 -11 -5 -16 10 -15 -5
-49 -21 -49 -17 0 -18 12 -2 28 9 9 9 15 0 24 -9 9 -6 14 11 23 12 6 22 17 22
25 1 8 6 14 13 13 7 -2 12 2 12 7 0 9 -98 4 -109 -6 -2 -2 -13 2 -25 8 -11 6
-45 10 -73 9 -45 -2 -52 0 -47 13 3 9 15 16 27 16 11 0 35 17 54 38 l33 37
-52 3 c-33 2 -56 9 -63 19 -7 9 -26 16 -44 16 -20 0 -27 3 -19 9 7 4 9 8 3 9
-5 1 8 5 30 8 38 6 55 4 135 -22z m386 7 c-5 -18 -3 -24 5 -18 8 4 9 3 5 -5
-6 -9 -11 -9 -21 -1 -14 12 -9 50 7 50 6 0 7 -11 4 -26z m56 6 c-12 -11 -19
-27 -16 -35 4 -8 1 -15 -5 -15 -6 0 -11 -4 -11 -9 0 -5 9 -7 20 -4 21 6 29
-20 10 -32 -6 -4 -8 -11 -4 -16 3 -5 9 -7 13 -5 4 3 12 -4 19 -14 7 -12 8 -21
2 -25 -6 -4 -8 -11 -5 -16 9 -14 -5 -11 -20 5 -8 7 -12 16 -9 19 3 3 -1 17 -8
31 l-14 26 -22 -20 c-12 -12 -19 -26 -16 -32 4 -6 3 -8 -3 -5 -5 3 -8 20 -5
38 4 24 2 30 -8 24 -9 -5 -11 -4 -6 3 10 16 33 15 39 0 2 -7 8 10 12 37 8 50
18 65 44 65 10 0 8 -6 -7 -20z m258 -1 c0 -5 -4 -9 -10 -9 -5 0 -10 7 -10 16
0 8 5 12 10 9 6 -3 10 -10 10 -16z m910 -16 c0 -7 5 -13 11 -13 5 0 7 5 3 11
-8 14 0 11 49 -20 24 -15 37 -30 37 -44 0 -20 -3 -19 -31 11 -32 34 -45 39
-51 21 -3 -8 -13 -7 -33 4 -17 9 -23 16 -15 17 13 0 13 1 0 10 -8 5 -11 10 -6
10 6 0 1 7 -10 15 -17 13 -16 13 14 3 17 -7 32 -18 32 -25z m-1002 4 c7 3 12
-4 12 -16 0 -12 -5 -21 -11 -21 -6 0 -8 7 -5 17 4 10 4 14 0 10 -9 -9 -34 11
-34 27 0 6 6 4 13 -5 7 -9 18 -14 25 -12z m755 3 c31 -15 36 -27 10 -25 -24 2
-93 32 -93 40 0 9 52 0 83 -15z m-575 2 c24 9 34 9 46 -1 21 -18 15 -65 -9
-69 -15 -2 -17 -1 -6 6 11 8 8 13 -15 25 -16 8 -34 12 -41 10 -6 -2 -14 1 -18
6 -10 18 -24 12 -22 -8 1 -12 11 -22 27 -26 41 -9 107 -46 132 -73 13 -14 16
-21 8 -16 -8 4 -24 10 -35 11 -11 2 -26 11 -32 20 -13 17 -53 26 -53 12 0 -4
14 -21 30 -37 17 -17 30 -36 30 -44 0 -10 3 -9 10 2 5 8 10 11 10 5 0 -5 5 -3
10 5 6 9 10 10 10 3 0 -6 -7 -18 -15 -27 -8 -8 -15 -22 -15 -32 0 -18 -27 -43
-47 -44 -7 0 -13 6 -13 14 0 7 -8 16 -18 18 -15 4 -18 -1 -17 -38 1 -24 -1
-44 -4 -44 -13 0 -10 -52 3 -72 16 -22 11 -52 -7 -41 -6 4 -8 -2 -5 -15 4 -14
-1 -31 -13 -45 l-18 -22 -2 30 c0 17 0 45 1 63 1 17 -3 32 -9 32 -6 0 -11 -10
-11 -22 0 -41 -3 -57 -11 -52 -14 8 -5 68 14 88 23 26 22 57 -4 90 -17 21 -17
25 -4 19 16 -5 16 -4 1 25 -9 17 -16 40 -16 51 0 23 -18 37 -44 32 -25 -4 -66
7 -66 18 0 14 43 21 56 10 9 -7 19 -7 32 0 14 8 22 5 35 -10 14 -16 14 -19 2
-19 -9 0 -12 -6 -9 -15 4 -8 12 -15 19 -15 7 0 15 -7 19 -15 3 -9 18 -15 38
-15 18 0 39 -4 47 -9 9 -6 19 -4 28 5 17 17 3 49 -26 57 -25 6 -34 -2 -19 -20
22 -27 -2 -24 -26 3 -15 18 -20 31 -14 35 6 4 7 13 2 20 -6 12 -5 12 9 0 20
-16 21 -5 3 28 -8 15 -16 20 -20 12 -4 -6 -12 -11 -19 -11 -6 0 -2 6 8 14 18
13 18 15 -11 41 -16 15 -22 24 -12 22 10 -4 18 1 21 14 5 17 9 19 25 10 14 -7
28 -7 50 1z m127 -2 c18 -8 17 -9 -7 -9 -15 -1 -30 4 -33 9 -7 12 12 12 40 0z
m519 -5 c11 -8 15 -15 10 -15 -6 0 -19 7 -30 15 -10 8 -14 14 -9 14 6 0 19 -6
29 -14z m-873 -53 c-6 -2 -11 -11 -11 -20 0 -12 -3 -13 -12 -4 -7 7 -17 12
-22 12 -6 0 -4 -5 4 -11 13 -9 13 -10 0 -6 -25 6 -18 32 8 29 22 -3 30 12 12
23 -5 3 -10 12 -10 18 1 7 10 1 21 -13 12 -14 16 -26 10 -28z m959 7 c0 -6 -4
-7 -10 -4 -5 3 -10 11 -10 16 0 6 5 7 10 4 6 -3 10 -11 10 -16z m-1197 -17
c-3 -12 -9 -19 -14 -17 -4 3 -12 -2 -17 -11 -8 -15 -10 -15 -15 0 -4 9 4 23
20 36 30 24 34 22 26 -8z m-549 10 c3 -5 -1 -9 -9 -9 -8 0 -12 4 -9 9 3 4 7 8
9 8 2 0 6 -4 9 -8z m858 -17 c4 -17 1 -25 -8 -25 -14 0 -19 31 -7 43 9 10 10
9 15 -18z m48 15 c18 -12 2 -12 -25 0 -13 6 -15 9 -5 9 8 0 22 -4 30 -9z m258
-25 c-3 -3 -9 2 -12 12 -6 14 -5 15 5 6 7 -7 10 -15 7 -18z m826 1 c7 3 19 -2
26 -11 13 -16 14 -15 -30 -20 -8 -1 -21 3 -27 8 -15 11 -18 31 -3 22 6 -3 10
0 11 7 0 9 2 10 5 1 3 -7 11 -10 18 -7z m-1507 -2 c-3 -3 -12 -4 -19 -1 -8 3
-5 6 6 6 11 1 17 -2 13 -5z m1113 -18 c0 -2 -7 -6 -15 -10 -8 -3 -15 -1 -15 4
0 6 7 10 15 10 8 0 15 -2 15 -4z m-1023 -28 c-3 -8 -6 -5 -6 6 -1 11 2 17 5
13 3 -3 4 -12 1 -19z m-470 -4 c-3 -3 -12 -4 -19 -1 -8 3 -5 6 6 6 11 1 17 -2
13 -5z m537 -9 c3 -8 1 -15 -4 -15 -6 0 -10 7 -10 15 0 8 2 15 4 15 2 0 6 -7
10 -15z m-160 -26 c-9 -15 -34 -10 -28 5 3 8 12 12 20 9 8 -3 11 -9 8 -14z
m295 12 c18 -11 4 -34 -16 -27 -11 4 -13 2 -9 -9 3 -8 1 -15 -4 -15 -5 0 -7
-7 -4 -15 10 -25 -12 -17 -26 9 -13 26 -7 62 9 51 5 -3 12 -1 16 5 8 12 16 12
34 1z m811 -6 c16 -19 0 -19 -26 0 -16 12 -16 14 -3 15 9 0 22 -7 29 -15z
m-1395 -18 c-23 -13 -55 -20 -55 -11 0 8 64 33 70 27 3 -2 -4 -10 -15 -16z
m82 10 c6 2 14 -1 18 -6 3 -6 -1 -11 -9 -11 -9 0 -16 -9 -16 -20 0 -18 10 -25
33 -21 4 0 7 -3 7 -9 0 -5 -13 -7 -30 -5 -16 2 -32 -1 -36 -6 -3 -5 -9 -7 -14
-4 -4 3 -11 -3 -15 -13 -6 -16 -7 -16 -16 1 -6 9 -14 15 -19 12 -5 -3 -11 -1
-14 4 -7 11 54 61 74 61 10 0 9 4 -1 17 -13 15 -12 15 6 6 11 -6 25 -8 32 -6z
m315 -9 c-9 -9 -15 -9 -24 0 -9 9 -7 12 12 12 19 0 21 -3 12 -12z m-182 -12
c0 -11 -19 -15 -25 -6 -3 5 1 10 9 10 9 0 16 -2 16 -4z m1180 -6 c12 -8 11
-10 -7 -10 -12 0 -25 5 -28 10 -8 13 15 13 35 0z m-757 -21 c-4 -16 -8 -17
-14 -7 -13 19 -11 28 5 28 9 0 12 -7 9 -21z m1077 11 c0 -5 -2 -10 -4 -10 -3
0 -8 5 -11 10 -3 6 -1 10 4 10 6 0 11 -4 11 -10z m94 -6 c6 -15 4 -15 -11 -3
-10 7 -20 15 -22 16 -2 2 3 3 11 3 9 0 19 -7 22 -16z m-1333 -14 c13 0 19 -7
19 -21 0 -15 -4 -19 -19 -14 -11 3 -22 1 -26 -5 -3 -5 -2 -10 4 -10 6 0 7 -11
2 -27 -4 -16 -6 -34 -5 -40 1 -7 2 -17 3 -22 0 -5 15 -8 31 -7 26 2 29 -1 24
-18 -4 -12 -12 -24 -18 -28 -6 -4 -7 -10 -3 -14 4 -4 15 -1 25 7 10 8 9 6 -3
-6 -60 -60 -104 -142 -69 -128 8 3 13 12 10 19 -3 7 0 16 6 20 7 4 8 3 4 -4
-4 -7 -2 -12 3 -12 6 0 16 9 23 20 17 27 37 26 31 -2 l-5 -23 16 23 c10 12 24
22 32 22 10 0 9 -5 -6 -20 -11 -11 -20 -26 -20 -34 0 -8 -10 -17 -22 -20 -15
-4 -32 -24 -47 -58 -14 -29 -27 -46 -29 -39 -2 7 1 17 7 20 7 4 14 25 18 47
l6 39 -30 -27 c-16 -16 -34 -28 -40 -28 -5 0 -27 -11 -47 -25 -36 -24 -37 -24
-31 -5 6 19 5 20 -14 8 -12 -7 -34 -31 -49 -53 -15 -22 -37 -49 -49 -60 -13
-11 -24 -30 -26 -42 -2 -12 -6 -26 -10 -29 -15 -15 -6 -26 10 -13 12 10 11 5
-4 -17 -30 -43 -15 -62 23 -29 16 14 32 25 37 25 13 0 7 -20 -8 -26 -8 -3 -23
-21 -34 -40 -11 -19 -26 -34 -33 -34 -8 0 -21 -9 -31 -21 -12 -13 -24 -18 -37
-14 -10 3 -33 -1 -50 -10 -18 -9 -34 -14 -37 -11 -3 2 12 14 34 25 45 24 43
25 -22 7 -46 -12 -95 -7 -95 9 0 3 15 14 33 25 17 11 31 22 30 25 -8 14 -1 35
10 33 6 -2 12 6 12 16 0 11 5 21 12 23 7 3 10 -4 6 -19 -4 -22 -4 -22 10 -5 9
10 17 13 19 7 2 -6 18 3 36 20 19 17 37 28 40 26 4 -2 13 3 20 10 12 13 9 14
-15 8 -15 -4 -39 -11 -53 -16 l-25 -9 28 29 c15 15 25 31 22 34 -4 3 8 12 24
19 17 8 31 17 31 20 0 3 12 23 26 44 27 41 22 61 -14 48 -21 -8 -82 -84 -82
-103 0 -6 -10 -15 -23 -21 -12 -6 -29 -24 -36 -40 -9 -20 -17 -27 -23 -21 -6
6 -6 17 1 31 17 31 -5 27 -26 -5 -21 -32 -63 -50 -75 -32 -13 22 -9 28 21 34
27 6 83 64 61 64 -5 0 -10 -5 -10 -11 0 -6 -6 -9 -14 -6 -7 3 -19 0 -26 -6
-10 -9 -11 -9 -8 3 3 8 15 20 27 26 13 7 28 17 34 23 6 6 19 11 28 11 10 0 32
12 49 27 17 14 45 27 62 28 17 2 34 9 39 16 12 20 11 31 -2 23 -8 -4 -9 1 -4
17 9 29 24 41 47 35 10 -2 23 6 33 20 14 21 14 23 -2 17 -11 -4 -14 -3 -9 5 4
7 2 12 -3 12 -6 0 -11 -4 -11 -10 0 -5 -7 -7 -16 -3 -11 4 -12 9 -5 16 6 6 11
19 11 29 0 13 -5 16 -19 10 -11 -4 -21 -11 -22 -17 -2 -12 -37 -38 -59 -44 -8
-2 -34 -4 -57 -5 -22 -1 -39 -4 -37 -7 5 -9 -55 -33 -63 -26 -3 4 -12 -1 -20
-11 -12 -16 -13 -16 -7 1 7 19 -15 24 -32 7 -5 -5 -25 -12 -45 -14 -19 -3 -46
-7 -60 -11 -20 -5 -25 -2 -25 14 0 11 3 19 6 19 11 -2 40 15 40 24 0 5 -5 6
-12 2 -7 -4 -8 -3 -4 4 4 7 14 12 22 12 8 0 14 5 14 12 0 9 3 9 12 0 7 -7 17
-12 22 -12 6 0 4 5 -4 10 -12 8 -11 10 7 10 12 0 29 3 38 6 10 4 15 2 13 -7
-2 -10 7 -14 29 -13 21 1 31 -2 26 -9 -4 -7 2 -8 18 -3 13 4 29 8 34 10 6 2
23 8 38 14 16 7 35 12 43 12 8 0 14 5 14 10 0 6 10 10 23 10 20 0 63 20 43 20
-5 0 -1 9 9 20 19 21 7 28 -13 8 -9 -9 -12 -9 -12 1 0 15 -37 5 -58 -16 -10
-9 -17 -11 -21 -4 -5 7 -20 6 -46 -3 -65 -22 -95 -27 -95 -17 0 5 5 13 10 16
20 12 9 22 -23 22 -46 -1 -60 9 -46 34 6 11 17 18 24 15 9 -3 12 1 10 14 -2
11 1 23 7 26 7 4 8 2 4 -4 -11 -18 20 -14 55 7 27 17 33 17 59 4 16 -8 39 -15
50 -16 20 -1 20 -2 4 -14 -16 -12 -16 -13 -2 -13 9 0 19 4 23 10 3 5 13 6 21
3 12 -4 9 -10 -13 -25 l-28 -19 35 7 c19 4 42 8 50 9 8 0 29 8 46 16 28 14 30
14 31 -2 1 -10 -7 -21 -17 -24 -10 -3 -21 -12 -24 -20 -7 -20 -3 -19 36 5 37
22 53 26 42 8 -5 -7 -3 -8 5 -4 7 5 17 20 23 34 11 28 12 27 23 -22 6 -27 7
-28 21 -10 14 17 15 17 10 2 -3 -10 -1 -18 4 -18 13 0 30 34 30 59 0 12 4 21
8 21 5 0 9 16 9 35 0 29 -5 36 -30 45 -17 5 -28 12 -25 15 3 3 17 1 32 -4 22
-9 26 -8 27 7 0 10 3 12 6 5 2 -7 13 -13 24 -13z m120 -15 c1 -8 3 -19 4 -25
1 -5 3 -20 4 -32 1 -18 3 -20 10 -8 6 8 8 17 5 21 -2 4 3 12 11 19 12 10 13 6
8 -24 -5 -31 -3 -36 14 -36 15 0 20 -7 21 -31 0 -17 6 -36 12 -44 9 -10 6 -19
-11 -38 -12 -14 -28 -23 -35 -20 -8 3 -14 -1 -15 -8 0 -8 -3 -25 -5 -38 l-4
-25 25 24 26 24 -7 -44 c-4 -25 -11 -53 -15 -62 -5 -9 -9 -26 -9 -37 0 -12 -4
-21 -9 -21 -5 0 -12 -9 -16 -19 -3 -10 -14 -21 -24 -24 -17 -4 -18 -1 -9 24 5
16 13 29 18 29 15 0 18 39 4 51 -10 8 -14 8 -14 0 0 -6 4 -11 10 -11 5 0 7 -6
4 -14 -3 -8 -11 -13 -18 -10 -15 6 -40 -21 -32 -35 3 -5 -4 -22 -16 -38 -21
-25 -38 -54 -71 -116 -7 -12 -20 -23 -30 -23 -17 -2 -17 -1 -2 16 14 15 14 18
1 23 -9 4 -17 -1 -19 -11 -3 -10 -5 -5 -6 11 -1 19 11 40 39 70 31 34 38 49
34 70 -2 15 0 27 6 27 5 0 10 -10 11 -22 1 -22 1 -22 12 3 7 14 31 51 55 81
36 47 42 61 39 92 -2 20 0 36 4 36 10 0 12 35 3 78 -9 45 -32 49 -49 8 -8 -19
-20 -38 -27 -42 -9 -6 -9 -3 1 9 10 13 11 20 2 31 -15 17 -4 46 15 39 8 -3 14
0 14 6 0 6 -6 11 -12 11 -8 1 -5 7 6 15 10 8 16 21 13 29 -3 8 -3 17 0 20 11
11 23 6 24 -9z m709 5 c0 -5 -2 -10 -4 -10 -3 0 -8 5 -11 10 -3 6 -1 10 4 10
6 0 11 -4 11 -10z m-347 -25 c-7 -21 -12 -19 -10 4 0 11 5 18 9 15 4 -3 5 -11
1 -19z m857 15 c4 0 10 -6 13 -14 5 -11 1 -11 -24 1 -30 15 -40 30 -13 19 9
-3 19 -6 24 -6z m-312 -18 c2 -7 -6 -12 -17 -12 -21 0 -27 11 -14 24 9 9 26 2
31 -12z m216 2 c3 -8 2 -12 -4 -9 -6 3 -10 10 -10 16 0 14 7 11 14 -7z m-1524
-39 c0 -1 -11 -5 -24 -7 -16 -3 -23 -1 -19 7 3 10 43 10 43 0z m740 9 c0 -13
-21 -44 -30 -44 -14 0 -12 18 3 35 12 15 27 20 27 9z m517 -20 c-9 -9 -28 6
-21 18 4 6 10 6 17 -1 6 -6 8 -13 4 -17z m-1693 -10 c-46 -16 -54 -17 -34 -4
13 9 13 10 0 10 -11 0 -12 2 -2 8 7 5 26 6 44 4 l31 -5 -39 -13z m718 -6 c-8
-8 -9 -4 -5 13 4 13 8 18 11 10 2 -7 -1 -18 -6 -23z m367 -12 c1 -5 -6 -3 -14
4 -13 11 -14 8 -10 -21 l5 -34 -11 33 c-7 25 -7 38 3 49 11 13 13 13 19 -4 4
-10 8 -22 8 -27z m249 30 c-10 -7 -16 -15 -13 -18 3 -2 -2 -5 -10 -5 -13 0
-13 3 2 19 9 10 21 18 27 18 6 0 3 -7 -6 -14z m578 -16 c8 0 14 -5 14 -11 0
-6 -7 -8 -16 -5 -9 3 -20 6 -25 6 -4 0 -5 8 -2 17 4 11 8 12 11 5 2 -7 10 -12
18 -12z m139 0 c29 -20 30 -20 8 -26 -13 -4 -23 -11 -23 -16 0 -5 -5 -6 -10
-3 -6 4 -8 11 -5 16 3 5 -1 6 -9 3 -18 -7 -22 11 -6 21 6 4 8 11 5 16 -10 15
8 10 40 -11z m-1102 -15 c-3 -9 -8 -14 -10 -11 -3 3 -2 9 2 15 9 16 15 13 8
-4z m-1066 -11 c-3 -3 -12 -4 -19 -1 -8 3 -5 6 6 6 11 1 17 -2 13 -5z m1941
-7 c17 0 15 -5 -6 -16 -14 -8 -23 -5 -36 10 -17 20 -17 21 6 13 13 -4 29 -7
36 -7z m81 -5 c5 2 9 -1 10 -7 0 -5 -8 -9 -19 -7 -10 2 -21 -2 -25 -9 -10 -15
-25 9 -18 27 4 10 10 11 24 4 10 -6 22 -9 28 -8z m174 -9 c-7 -2 -19 -2 -25 0
-7 3 -2 5 12 5 14 0 19 -2 13 -5z m-928 -15 c4 4 6 0 3 -8 -3 -8 -14 -13 -24
-12 -25 5 -27 8 -19 22 5 8 11 8 19 1 7 -6 16 -7 21 -3z m255 -18 c0 -5 -7 -7
-15 -4 -8 4 -15 8 -15 10 0 2 7 4 15 4 8 0 15 -4 15 -10z m257 -32 c-3 -8 -6
-5 -6 6 -1 11 2 17 5 13 3 -3 4 -12 1 -19z m-854 5 c-7 -2 -13 -12 -13 -20 0
-9 -3 -14 -6 -10 -10 10 4 37 18 36 10 0 10 -2 1 -6z m261 -14 c-8 -14 -21
-11 -21 5 0 8 6 12 14 9 7 -3 10 -9 7 -14z m516 7 c0 -3 -4 -8 -10 -11 -5 -3
-10 -1 -10 4 0 6 5 11 10 11 6 0 10 -2 10 -4z m-471 -85 c1 -25 -3 -32 -13
-28 -8 3 -22 0 -32 -8 -10 -7 -23 -11 -30 -8 -14 5 -50 -43 -59 -79 -4 -14
-15 -28 -26 -31 -21 -6 -26 -42 -6 -51 6 -3 3 -4 -8 -3 -17 2 -20 -3 -17 -31
2 -27 -2 -34 -24 -42 -34 -13 -39 -13 -25 4 8 10 8 16 -2 25 -8 6 -18 7 -22 3
-5 -4 -5 -1 -1 6 4 7 12 9 18 6 6 -4 8 -2 5 4 -9 13 2 44 14 37 11 -7 32 34
34 68 2 23 -1 26 -19 21 -18 -6 -19 -5 -9 8 7 8 9 19 5 24 -4 4 1 2 11 -5 16
-12 22 -12 45 6 19 14 26 28 24 44 -2 19 -1 21 7 9 5 -8 12 -12 14 -10 2 3 14
20 26 38 12 17 29 32 37 32 8 0 13 -4 10 -9 -3 -5 3 -11 14 -14 23 -6 23 -6
11 26 -6 14 -7 28 -3 32 9 8 20 -30 21 -74z m636 69 c3 -6 -1 -7 -9 -4 -18 7
-21 14 -7 14 6 0 13 -4 16 -10z m-985 -4 c0 -3 -4 -8 -10 -11 -5 -3 -10 -1
-10 4 0 6 5 11 10 11 6 0 10 -2 10 -4z m-560 -10 c0 -2 -7 -7 -16 -10 -8 -3
-12 -2 -9 4 6 10 25 14 25 6z m1650 -26 c0 -4 -11 -7 -25 -7 -26 0 -34 12 -12
20 15 5 37 -2 37 -13z m100 -60 c-9 -6 -17 -5 -22 3 -6 9 -8 8 -8 -2 0 -8 -3
-12 -6 -8 -3 3 0 23 7 44 l12 38 16 -33 c13 -29 13 -34 1 -42z m-535 49 c4 -6
13 -8 21 -5 8 3 11 0 7 -9 -3 -8 -10 -12 -17 -8 -6 4 -20 7 -31 6 -11 -2 -14
0 -7 3 6 3 10 10 6 15 -3 5 -1 9 5 9 5 0 13 -5 16 -11z m355 7 c0 -3 -4 -8
-10 -11 -5 -3 -10 -1 -10 4 0 6 5 11 10 11 6 0 10 -2 10 -4z m-265 -26 c-3 -5
-11 -10 -16 -10 -6 0 -7 5 -4 10 3 6 11 10 16 10 6 0 7 -4 4 -10z m48 -24 c-3
-4 -9 -2 -14 5 -13 22 -11 31 5 17 8 -7 12 -17 9 -22z m-369 8 c9 -23 -3 -37
-19 -24 -11 9 -17 7 -27 -9 -15 -24 -40 -29 -32 -6 4 8 12 15 20 15 8 0 19 9
26 20 15 24 24 25 32 4z m-900 -45 c-24 -27 -16 -29 32 -9 72 31 71 24 -6 -40
-33 -28 -50 -37 -50 -27 0 9 9 19 20 22 11 3 20 11 20 16 0 5 -18 0 -40 -11
-46 -24 -61 -26 -34 -5 19 15 19 15 -1 9 l-20 -6 20 17 c11 9 20 19 20 24 0 4
8 15 18 25 9 10 17 23 18 29 0 7 4 3 9 -8 5 -13 3 -26 -6 -36z m1086 43 c0
-13 -12 -22 -22 -16 -10 6 -1 24 13 24 5 0 9 -4 9 -8z m685 -2 c3 -5 1 -10 -4
-10 -6 0 -11 5 -11 10 0 6 2 10 4 10 3 0 8 -4 11 -10z m-2369 -29 c-4 -5 0
-12 6 -14 7 -3 1 -6 -14 -6 -15 -1 -30 4 -34 11 -5 8 -2 9 9 5 10 -3 17 -2 17
3 0 6 5 10 11 10 5 0 8 -4 5 -9z m1600 -28 c-3 -8 1 -10 12 -6 13 5 14 3 6 -6
-9 -9 -17 -10 -31 -3 -21 12 -41 11 -60 -1 -16 -10 -18 24 -3 39 14 14 82 -7
76 -23z m354 28 c0 -5 -7 -11 -15 -15 -15 -5 -20 5 -8 17 9 10 23 9 23 -2z
m-552 -19 c2 -7 -1 -12 -8 -12 -6 0 -9 4 -6 9 4 5 1 12 -4 14 -6 3 -5 4 2 3 6
-1 14 -8 16 -14z m1022 -3 c0 -6 -4 -7 -10 -4 -5 3 -10 11 -10 16 0 6 5 7 10
4 6 -3 10 -11 10 -16z m-2010 -5 c0 -13 -22 -24 -48 -24 -9 0 -29 -6 -43 -13
-14 -8 -34 -11 -45 -7 -10 4 -28 6 -39 5 -84 -10 -120 -17 -145 -30 -38 -19
-50 -19 -25 2 19 15 19 15 -8 9 -18 -4 -26 -3 -23 3 6 9 67 24 151 36 22 3 41
10 43 15 2 5 9 7 15 4 7 -2 26 0 42 5 43 12 125 8 125 -5z m1070 -20 c0 -17
-22 -14 -28 4 -2 7 3 12 12 12 9 0 16 -7 16 -16z m330 7 c0 -5 -7 -12 -16 -15
-14 -5 -15 -4 -4 9 14 17 20 19 20 6z m96 -18 c-3 -8 -6 -17 -6 -19 0 -2 -4
-4 -9 -4 -5 0 -8 11 -7 24 0 15 6 22 14 18 7 -2 11 -11 8 -19z m-212 -18 c-4
-8 -10 -12 -15 -9 -11 6 -2 24 11 24 5 0 7 -7 4 -15z m477 -28 c-12 -30 -31
-36 -31 -9 0 15 -2 15 -11 2 -9 -13 -10 -13 -6 0 2 8 10 14 16 13 6 -2 17 6
23 17 16 26 22 11 9 -23z m-1807 19 c-21 -15 -30 -14 -19 3 3 6 14 11 23 11
13 0 13 -2 -4 -14z m-353 -19 c-10 -9 -11 -8 -5 6 3 10 9 15 12 12 3 -3 0 -11
-7 -18z m2234 13 c-3 -5 0 -10 7 -10 8 0 6 -5 -4 -11 -10 -5 -18 -20 -18 -32
0 -12 -4 -28 -8 -35 -5 -7 -7 7 -6 34 2 26 9 51 16 55 17 11 20 11 13 -1z
m-190 -10 c-3 -5 -1 -10 4 -10 6 0 11 -9 11 -20 0 -11 -4 -20 -10 -20 -5 0 -7
7 -4 15 4 11 -1 15 -17 15 -23 1 -23 1 -5 15 23 17 30 19 21 5z m-401 -26 c8
-22 8 -24 -8 -24 -18 0 -29 16 -21 30 9 15 22 12 29 -6z m76 -14 c0 -6 -7 -10
-15 -10 -8 0 -15 2 -15 4 0 2 -3 12 -7 21 -5 15 -3 16 15 6 12 -7 22 -16 22
-21z m273 0 c-3 -11 -9 -17 -15 -14 -5 3 -4 12 3 20 16 19 18 18 12 -6z
m-1897 -3 c-2 -19 -41 -54 -67 -62 -21 -7 -20 -5 6 18 27 24 28 26 10 27 -14
1 -9 6 15 15 19 7 36 14 37 14 1 1 0 -5 -1 -12z m129 -15 c-16 -16 -38 -39
-48 -51 -12 -15 -24 -20 -38 -16 -12 4 -34 -2 -55 -14 -49 -29 -53 -26 -15 13
23 24 29 35 19 39 -9 4 -7 6 4 6 10 1 27 9 38 19 22 18 48 27 95 30 l30 3 -30
-29z m1311 0 c-4 -12 -14 -19 -24 -17 -9 2 -21 4 -25 4 -14 2 4 22 27 31 26
10 30 7 22 -18z m655 3 c5 3 6 -1 3 -9 -3 -9 -12 -16 -20 -16 -7 0 -11 -6 -8
-14 7 -19 -16 -100 -26 -90 -10 12 0 75 11 68 5 -3 9 2 9 11 0 8 -7 18 -15 21
-8 4 -15 15 -15 25 0 24 20 25 21 2 0 -13 3 -11 11 7 9 21 12 22 15 7 3 -9 9
-15 14 -12z m-886 5 c-8 -13 1 -13 25 0 10 5 28 6 40 2 l21 -8 -21 -22 c-23
-25 -50 -31 -30 -7 7 8 8 15 2 15 -5 0 -15 -7 -22 -15 -7 -9 -15 -13 -18 -11
-2 3 -14 1 -25 -5 -14 -8 -18 -8 -13 0 5 7 -3 11 -19 11 -16 0 -24 4 -20 11 4
6 13 8 20 5 7 -2 21 4 31 14 20 20 39 27 29 10z m641 -24 c15 -16 18 -26 6
-26 -4 0 -13 9 -20 20 -14 23 -7 26 14 6z m-1581 -6 c-3 -5 -12 -10 -18 -10
-7 0 -6 4 3 10 19 12 23 12 15 0z m1045 -4 c0 -8 -17 -28 -37 -43 -21 -15 -41
-32 -45 -38 -5 -6 -8 -5 -8 4 0 14 69 91 83 91 4 0 7 -7 7 -14z m360 -31 c0
-19 -21 -30 -30 -15 -4 6 -11 10 -16 8 -5 -1 -10 7 -12 19 -3 21 -1 22 27 12
17 -6 31 -17 31 -24z m102 21 c6 4 8 -2 6 -12 -2 -10 -13 -24 -26 -30 -12 -6
-19 -13 -16 -17 3 -3 2 -12 -2 -19 -6 -9 -10 -6 -15 12 -12 44 -10 57 14 67
12 6 24 6 25 2 2 -5 8 -6 14 -3z m395 -8 c-3 -8 -6 -5 -6 6 -1 11 2 17 5 13 3
-3 4 -12 1 -19z m-2449 0 c-2 -6 -12 -12 -21 -14 -9 -1 -15 2 -11 7 3 5 10 7
15 4 5 -4 9 -1 9 4 0 6 3 11 6 11 3 0 4 -5 2 -12z m542 -5 c-8 -3 -23 -15 -35
-25 -23 -22 -79 -48 -105 -48 -9 0 -39 -11 -65 -25 -54 -27 -73 -24 -35 5 14
11 21 20 16 20 -16 0 45 50 62 51 9 0 33 6 52 13 19 8 55 14 80 14 25 0 38 -2
30 -5z m1846 -42 c-9 -17 -22 -31 -29 -30 -9 0 -9 2 0 6 7 2 15 20 19 39 4 23
10 32 16 26 6 -6 4 -21 -6 -41z m-1349 25 c-3 -8 -2 -16 3 -18 5 -2 3 -14 -5
-28 -8 -14 -19 -35 -24 -47 -6 -13 -15 -23 -20 -23 -5 0 -13 -9 -16 -20 -8
-24 -78 -62 -99 -54 -20 8 -21 24 -1 25 49 4 93 31 106 64 26 65 50 115 55
115 4 0 4 -6 1 -14z m1258 3 c-4 -6 -14 -8 -22 -4 -14 5 -14 3 -2 -12 12 -15
12 -16 -3 -10 -12 4 -19 0 -23 -14 -4 -11 -9 -19 -11 -16 -2 2 1 18 7 35 8 24
17 32 36 32 14 0 22 -4 18 -11z m-2261 -41 c-1 -24 -3 -51 -3 -61 -1 -16 -3
-17 -16 -3 -8 8 -15 21 -15 28 0 10 3 9 10 -2 9 -13 10 -13 10 0 0 8 -4 21 -9
29 -6 9 -3 20 7 32 9 11 17 19 18 19 1 0 0 -19 -2 -42z m1287 19 c-10 -9 -11
-8 -5 6 3 10 9 15 12 12 3 -3 0 -11 -7 -18z m845 -4 c-10 -10 -19 5 -10 18 6
11 8 11 12 0 2 -7 1 -15 -2 -18z m-891 7 c-3 -5 -11 -10 -16 -10 -6 0 -7 5 -4
10 3 6 11 10 16 10 6 0 7 -4 4 -10z m668 -69 c-10 -9 -25 -16 -33 -15 -8 0
-23 2 -32 2 -24 3 -23 28 1 35 14 3 18 1 14 -9 -5 -15 14 -19 33 -6 6 4 15 18
20 32 l8 25 4 -23 c2 -14 -4 -31 -15 -41z m164 -4 c1 -35 -3 -70 -8 -78 -7
-11 -9 -8 -9 10 0 20 -4 23 -25 18 -16 -3 -24 0 -22 7 2 6 9 12 15 12 25 3 27
5 12 14 -8 5 -10 10 -4 10 7 0 15 16 18 35 11 55 22 41 23 -28z m-737 49 c0
-10 -92 -66 -109 -66 -9 0 -22 -5 -28 -11 -6 -6 -21 -8 -34 -3 -22 7 -21 8 19
25 41 18 60 35 25 22 -13 -4 -15 -3 -8 5 6 7 26 14 45 18 26 4 31 3 20 -5 -13
-9 -13 -11 1 -11 9 0 22 7 29 15 11 14 40 21 40 11z m43 -33 c-14 -7 -35 -13
-47 -13 -21 1 -21 1 -1 15 11 8 25 18 30 23 6 5 17 5 27 -1 14 -10 13 -12 -9
-24z m-1282 -33 c-9 -23 -10 -23 -10 11 -1 20 2 39 7 43 11 12 14 -27 3 -54z
m1392 19 c49 5 -11 -33 -68 -43 l-40 -7 45 40 c35 30 46 36 50 25 3 -9 9 -15
13 -15z m134 -5 c-35 -30 -52 -31 -37 -3 11 20 50 41 60 32 3 -3 -8 -16 -23
-29z m-593 5 c-13 -15 -15 -23 -7 -26 7 -2 9 -12 6 -21 -5 -14 -3 -13 9 2 11
14 17 16 22 7 4 -6 2 -18 -4 -26 -22 -27 19 -32 73 -10 29 12 22 -39 -8 -55
-14 -7 -25 -20 -24 -29 0 -11 2 -12 6 -3 2 6 14 12 26 12 18 -1 15 -5 -15 -20
-20 -11 -40 -24 -43 -30 -3 -5 -12 -10 -18 -10 -7 0 -1 9 13 20 14 11 20 20
13 20 -6 0 -15 -5 -18 -11 -4 -6 -12 -8 -19 -6 -7 3 -28 -3 -48 -13 l-36 -18
11 27 c6 14 16 32 21 40 9 12 7 13 -12 8 -18 -4 -22 -2 -18 9 6 17 1 18 -25 4
-10 -6 -19 -7 -19 -3 0 5 10 13 23 18 15 7 23 20 25 43 3 28 6 31 18 21 11 -9
14 -7 14 11 0 13 10 31 22 41 29 26 36 24 12 -2z m1396 11 c0 -5 -4 -10 -10
-10 -5 0 -10 5 -10 10 0 6 5 10 10 10 6 0 10 -4 10 -10z m-24 -56 c2 -21 8
-42 14 -48 5 -5 10 -26 9 -45 -1 -33 -2 -34 -9 -11 -4 14 -8 18 -9 11 -1 -12
-4 -12 -13 -3 -10 10 -10 15 1 21 8 6 10 14 5 22 -5 8 -9 19 -10 24 -1 6 -4
22 -7 37 -5 25 1 43 11 34 2 -3 6 -21 8 -42z m-1053 24 c-4 -7 -8 -16 -8 -20
0 -5 -3 -8 -7 -8 -5 0 -44 -13 -88 -29 -44 -16 -82 -26 -85 -21 -4 7 118 53
146 55 3 0 13 8 23 18 20 20 31 23 19 5z m1003 -2 c16 -16 19 -30 5 -21 -6 3
-9 -7 -8 -21 1 -15 -4 -29 -11 -31 -10 -4 -12 7 -10 41 3 51 4 52 24 32z
m-132 -12 c3 -8 2 -13 -3 -10 -15 10 -34 -41 -26 -71 l7 -28 13 25 c14 24 14
24 15 -22 0 -25 2 -52 3 -60 2 -7 2 -10 0 -5 -3 4 -9 5 -14 1 -5 -3 -9 5 -9
18 -1 26 -51 89 -57 71 -6 -18 -33 -3 -33 19 0 10 -4 16 -10 13 -7 -4 -7 2 -1
18 6 14 7 28 4 31 -4 3 -2 6 3 6 16 -1 42 -25 47 -45 3 -15 5 -12 7 10 1 17 4
24 7 18 2 -7 9 -13 15 -13 6 0 8 6 5 14 -6 14 1 26 14 26 4 0 10 -7 13 -16z
m-499 -51 c-10 -21 -20 -32 -22 -26 -4 10 -10 10 -25 2 -33 -18 -30 -4 5 21
17 13 36 30 40 38 18 29 19 1 2 -35z m550 6 c4 -16 1 -30 -7 -36 -10 -9 -14
-2 -16 35 -3 49 11 50 23 1z m-856 -16 c-13 -16 -27 -32 -32 -38 -4 -5 -5 -1
-1 9 6 16 4 18 -19 14 -15 -3 -27 -1 -27 4 0 5 -4 7 -10 3 -5 -3 -33 -8 -62
-10 l-53 -5 40 14 c22 7 43 11 48 9 4 -2 7 0 7 6 0 9 25 13 109 19 l24 2 -24
-27z m607 8 c0 -11 -4 -17 -8 -15 -4 3 -8 12 -8 20 0 8 4 14 8 14 4 0 8 -9 8
-19z m-26 -11 c0 -15 -13 -26 -47 -41 -55 -23 -73 -14 -48 25 18 27 35 34 35
15 0 -5 10 -3 22 5 30 21 38 20 38 -4z m-1970 -38 c13 -47 13 -65 0 -57 -6 4
-8 10 -5 15 3 5 -1 26 -10 46 -18 43 -18 47 -5 39 5 -3 14 -22 20 -43z m98 12
c-3 -14 -5 -12 -10 9 -3 19 -2 25 4 19 6 -6 8 -18 6 -28z m2260 -21 c6 -18 9
-33 7 -33 -7 0 -35 58 -35 72 0 19 16 -3 28 -39z m-1758 27 c0 -5 -10 -15 -22
-21 -23 -12 -23 -12 -4 10 21 23 26 26 26 11z m935 -6 c-17 -12 -18 -16 -5
-24 9 -5 19 -5 27 2 10 8 13 7 13 -4 0 -16 -49 -35 -97 -37 -25 -1 -31 2 -27
14 4 8 17 18 29 21 13 3 31 14 41 25 9 10 22 19 28 19 6 0 2 -7 -9 -16z m-773
-24 c-13 -10 -30 -16 -37 -13 -9 3 -15 -1 -15 -10 0 -9 -4 -19 -10 -22 -6 -4
-7 1 -3 11 5 13 3 15 -8 9 -11 -6 -12 -5 -2 6 12 12 66 36 88 37 6 1 0 -7 -13
-18z m863 -20 c-3 -5 2 -10 12 -10 14 0 15 -2 4 -9 -7 -5 -11 -14 -7 -20 4 -7
1 -9 -8 -5 -8 3 -24 1 -35 -5 -13 -8 -22 -8 -26 -1 -4 6 -11 8 -16 5 -5 -4 -9
-1 -9 4 0 6 7 11 16 11 9 0 12 5 8 12 -5 7 0 9 14 6 13 -4 23 0 26 8 3 8 10
14 16 14 6 0 8 -4 5 -10z m455 -3 c0 -19 -29 -75 -42 -83 -8 -5 -9 -1 -5 10 4
10 3 15 -3 11 -16 -10 -11 21 5 35 9 7 14 19 11 27 -3 8 2 13 14 13 11 0 20
-6 20 -13z m-305 -17 c-10 -11 -15 -20 -10 -20 4 0 2 -7 -5 -15 -7 -8 -17 -15
-23 -15 -6 0 -2 7 9 15 19 14 19 14 -1 15 -18 0 -18 2 5 20 33 26 48 26 25 0z
m40 -20 c-3 -5 -11 -10 -16 -10 -6 0 -7 5 -4 10 3 6 11 10 16 10 6 0 7 -4 4
-10z m-1625 -54 c0 -5 -9 -1 -20 9 -11 10 -20 25 -20 34 0 12 6 9 20 -9 11
-14 20 -29 20 -34z m2077 22 c-3 -7 -5 -2 -5 12 0 14 2 19 5 13 2 -7 2 -19 0
-25z m73 12 c0 -5 -5 -10 -11 -10 -5 0 -7 5 -4 10 3 6 8 10 11 10 2 0 4 -4 4
-10z m-783 -6 c-3 -3 -12 -4 -19 -1 -8 3 -5 6 6 6 11 1 17 -2 13 -5z m582 -17
c0 -9 -2 -8 -6 1 -2 6 -10 9 -15 6 -7 -4 -8 -2 -4 5 9 13 26 5 25 -12z m-119
0 c0 -7 -6 -19 -12 -26 -11 -10 -9 -11 7 -6 19 6 19 6 2 -5 -24 -15 -30 -9
-21 24 6 27 24 36 24 13z m363 -21 c3 3 3 -4 0 -17 -4 -13 -2 -20 4 -16 5 3
10 1 10 -6 1 -32 25 -162 31 -167 6 -4 11 -60 6 -60 -3 0 -54 111 -54 117 0 2
4 2 9 -1 5 -4 6 4 3 16 -5 19 -7 20 -10 5 -2 -9 -8 -15 -13 -12 -5 4 -9 -8 -9
-24 0 -17 4 -31 8 -31 4 0 8 -9 8 -20 0 -11 -4 -20 -8 -20 -4 0 -8 -12 -8 -27
0 -52 -12 -13 -15 49 -3 76 -19 158 -32 167 -14 9 -23 50 -12 57 5 3 9 -3 9
-13 0 -10 9 -29 20 -43 11 -14 20 -31 20 -37 0 -7 4 -13 9 -13 5 0 8 12 6 28
-2 15 -4 31 -4 35 -1 5 -5 5 -11 2 -5 -3 -10 1 -10 10 0 9 5 13 11 9 8 -4 9 1
5 17 -6 22 -6 22 7 7 8 -10 17 -15 20 -12z m-1639 -12 c12 -8 31 -11 45 -7 14
3 23 2 19 -2 -11 -11 21 -48 83 -96 30 -24 56 -45 59 -48 3 -4 23 -19 45 -35
22 -17 50 -40 62 -53 19 -19 32 -23 87 -23 36 0 68 5 71 10 5 8 12 7 22 -2 9
-7 25 -11 36 -10 11 2 24 -2 29 -10 6 -9 8 -8 6 7 -2 11 2 20 7 21 25 2 46 18
41 30 -5 13 6 19 28 15 5 -1 4 4 -2 12 -7 8 -9 17 -5 20 3 4 0 7 -8 7 -8 0
-23 14 -33 31 -11 19 -23 28 -32 25 -8 -3 -13 -2 -10 3 3 5 -6 17 -19 27 -34
25 -32 44 3 39 35 -5 129 -40 147 -55 8 -7 19 -9 25 -5 5 3 13 -1 16 -10 4 -9
13 -13 23 -10 11 3 26 -4 40 -19 20 -22 21 -25 6 -40 -15 -15 -15 -16 0 -16 9
0 15 -6 12 -12 -2 -7 -9 -12 -15 -11 -7 2 -10 -14 -8 -42 1 -25 -3 -50 -9 -55
-16 -13 -17 -60 -2 -60 7 0 43 -20 80 -45 64 -43 107 -57 107 -35 0 18 78 12
90 -7 8 -13 13 -14 16 -5 3 6 10 12 15 12 5 0 9 -6 9 -12 0 -13 44 -38 66 -38
6 0 15 -16 18 -35 5 -27 2 -45 -15 -75 -12 -21 -26 -37 -30 -34 -4 2 -10 -4
-13 -13 -6 -18 -96 -120 -96 -109 0 3 -26 -19 -57 -49 -32 -30 -63 -55 -70
-55 -7 0 -13 -4 -13 -9 0 -5 -22 -18 -49 -30 -53 -23 -65 -25 -58 -13 3 4 -7
8 -21 9 l-27 1 23 -12 c35 -19 5 -39 -43 -30 -27 5 -40 3 -47 -7 -8 -11 -9
-10 -4 4 3 10 0 17 -7 17 -8 0 -6 4 3 10 13 8 12 11 -5 25 -19 15 -98 54 -140
69 -11 4 -51 9 -90 12 -62 3 -76 8 -125 42 -46 33 -65 40 -117 44 -55 4 -62 2
-67 -16 -3 -11 -4 -20 -3 -21 1 0 27 -13 57 -27 34 -17 44 -25 26 -21 -37 8
-27 -12 11 -22 15 -3 35 -13 43 -20 8 -8 25 -23 38 -35 12 -11 27 -20 32 -20
6 0 10 -5 10 -11 0 -6 -9 -8 -21 -4 -15 5 -19 4 -15 -4 4 -6 18 -11 31 -11 19
0 23 4 18 17 -6 15 -5 16 9 3 25 -23 -1 -32 -77 -24 -44 5 -65 11 -65 20 0 7
-13 20 -30 29 -16 9 -30 21 -30 27 0 6 -10 23 -22 36 -13 14 -16 21 -9 17 9
-5 7 3 -6 21 -11 16 -18 34 -16 41 2 6 -1 15 -8 19 -8 5 -9 3 -4 -6 5 -9 4
-11 -4 -6 -14 9 -5 26 15 26 8 0 12 5 9 10 -4 6 -10 8 -15 5 -5 -3 -11 3 -15
13 -3 11 -21 33 -40 51 -19 17 -37 42 -41 56 -3 14 -10 25 -15 25 -5 0 -8 3
-7 8 1 4 -4 27 -12 52 -7 25 -12 55 -12 68 1 13 -7 40 -17 60 -47 91 -72 174
-74 245 -1 31 2 57 6 57 4 0 7 8 5 18 -2 9 3 16 10 15 6 -2 12 6 12 17 0 11 7
20 15 20 8 0 12 6 9 13 -7 19 74 19 100 1z m1026 -41 c0 -7 -9 -18 -20 -25
-11 -7 -20 -17 -20 -22 0 -5 8 -2 18 7 24 22 50 24 33 3 -11 -13 -6 -14 31
-11 37 3 41 2 26 -9 -10 -7 -18 -16 -18 -19 0 -4 8 -4 18 -1 14 5 14 3 -2 -10
-15 -12 -16 -16 -5 -17 21 -1 -40 -20 -78 -24 -35 -4 -41 3 -20 24 9 11 9 12
0 7 -7 -4 -21 -2 -30 3 -17 10 -16 10 2 11 11 1 14 4 7 7 -6 2 -9 10 -5 16 4
6 0 8 -10 4 -30 -11 -29 13 2 41 32 29 71 37 71 15z m125 7 c-3 -5 -14 -10
-23 -9 -14 0 -13 2 3 9 27 11 27 11 20 0z m-941 -45 c39 -38 62 -44 120 -29
24 6 27 4 24 -12 -2 -14 -15 -21 -46 -25 -23 -3 -42 -3 -42 1 0 7 -61 33 -73
31 -4 -1 -10 6 -13 14 -3 8 -10 13 -14 10 -4 -2 -16 5 -26 18 -16 18 -16 19
-2 8 15 -11 19 -11 24 3 8 21 8 21 48 -19z m957 15 c-13 -11 -31 -20 -40 -20
-10 0 -5 7 14 19 39 26 56 26 26 1z m-1600 -56 c22 -25 22 -26 3 -16 -12 6
-24 18 -28 27 -8 21 -3 19 25 -11z m-375 -31 c-10 -10 -19 5 -10 18 6 11 8 11
12 0 2 -7 1 -15 -2 -18z m1973 3 c-8 -8 -25 -17 -39 -20 l-25 -6 25 12 c14 7
29 19 33 26 5 7 12 11 15 8 3 -4 -1 -13 -9 -20z m-1551 -61 c-3 -3 -9 2 -12
12 -6 14 -5 15 5 6 7 -7 10 -15 7 -18z m-368 3 c10 -62 10 -78 2 -78 -10 0
-22 33 -22 63 0 9 5 17 10 17 6 0 10 -1 10 -2z m83 -49 c4 -16 3 -18 -8 -9 -7
6 -15 20 -18 31 -4 16 -3 18 8 9 7 -6 15 -20 18 -31z m1907 36 c0 -2 -7 -8
-15 -15 -12 -10 -15 -10 -15 2 0 8 7 15 15 15 8 0 15 -1 15 -2z m23 -32 c-10
-30 -62 -76 -78 -69 -28 10 -16 34 35 65 43 26 51 26 43 4z m387 2 c7 -9 8
-15 2 -15 -5 0 -12 7 -16 15 -3 8 -4 15 -2 15 2 0 9 -7 16 -15z m-187 -15 c3
-11 2 -20 -2 -20 -4 0 -11 -14 -16 -32 -14 -45 -39 -51 -30 -7 7 40 25 79 36
79 3 0 9 -9 12 -20z m-113 -14 c0 -25 -83 -126 -103 -126 -6 0 5 16 24 37 20
21 27 33 17 30 -10 -4 -18 -3 -18 1 0 4 15 12 33 17 25 8 33 16 35 38 4 33 12
36 12 3z m298 -34 c22 -44 51 -125 55 -149 4 -29 17 -42 17 -18 0 10 3 15 7
12 12 -12 9 -126 -3 -116 -6 5 -14 6 -17 2 -4 -3 -7 1 -7 10 0 22 -32 87 -42
87 -5 0 -7 4 -3 9 3 5 1 13 -5 16 -6 4 -10 3 -9 -2 1 -4 1 -17 0 -27 -2 -34
-11 -10 -17 45 -3 30 -11 60 -16 67 -7 8 -7 12 1 12 6 0 11 -4 11 -10 0 -5 5
-10 10 -10 13 0 13 41 0 74 -13 35 2 33 18 -2z m-2059 -27 c0 -5 -6 -1 -14 9
-8 11 -15 24 -15 30 0 5 7 1 15 -10 8 -10 14 -23 14 -29z m1566 35 c3 -6 -1
-7 -9 -4 -18 7 -21 14 -7 14 6 0 13 -4 16 -10z m105 -5 c0 -8 -7 -15 -15 -15
-13 0 -14 3 -3 15 16 18 18 18 18 0z m-1833 -59 l15 -31 -31 35 c-32 37 -42
61 -15 39 8 -7 22 -26 31 -43z m1689 17 c-3 -23 -8 -28 -31 -28 -16 0 -30 6
-33 14 -3 8 1 12 9 9 7 -2 21 4 31 14 24 24 27 23 24 -9z m-1330 -20 c19 -20
32 -39 29 -41 -5 -6 -59 38 -74 61 -21 32 10 19 45 -20z m-116 -35 c8 -7 22
-22 30 -33 13 -17 11 -16 -17 3 -18 13 -35 27 -38 33 -4 5 -10 7 -14 5 -4 -3
-8 1 -8 9 0 15 16 9 47 -17z m98 -34 c-4 -3 -12 5 -18 18 -12 22 -12 22 6 6
10 -10 15 -20 12 -24z m-163 -14 c-3 -5 -1 -11 5 -15 5 -3 10 -15 10 -26 0
-18 -2 -19 -15 -5 -17 16 -21 71 -5 61 6 -4 8 -10 5 -15z m-115 -40 c0 -5 -2
-10 -4 -10 -3 0 -8 5 -11 10 -3 6 -1 10 4 10 6 0 11 -4 11 -10z m290 -20 c0
-5 -2 -10 -4 -10 -3 0 -8 5 -11 10 -3 6 -1 10 4 10 6 0 11 -4 11 -10z m57 -34
c22 -34 20 -61 -2 -28 -40 59 -47 72 -34 67 8 -3 24 -21 36 -39z m-212 -6 c26
-29 15 -32 -15 -4 -13 13 -20 24 -14 24 6 0 19 -9 29 -20z m-85 -33 c0 -5 -4
-5 -10 -2 -5 3 -10 14 -10 23 0 15 2 15 10 2 5 -8 10 -19 10 -23z m210 16 c0
-5 4 -25 9 -46 12 -49 0 -39 -15 14 -7 21 -8 39 -3 39 5 0 9 -3 9 -7z m86 -49
c-2 -6 6 -27 20 -45 13 -18 24 -40 24 -48 0 -13 -2 -13 -9 -2 -5 7 -14 10 -21
6 -7 -4 -13 1 -17 14 -3 12 -9 21 -14 21 -5 0 -9 21 -9 46 0 41 2 45 15 34 9
-7 14 -19 11 -26z m-263 -6 c9 -31 2 -33 -11 -3 -6 14 -8 25 -3 25 5 0 11 -10
14 -22z m128 -65 c-8 -15 -10 -15 -11 -2 0 17 10 32 18 25 2 -3 -1 -13 -7 -23z
m1945 -160 c-11 -11 -17 4 -9 23 7 18 8 18 11 1 2 -10 1 -21 -2 -24z m-367
-34 c-20 -12 -22 -4 -7 20 11 18 14 19 16 5 2 -9 -2 -20 -9 -25z m46 22 c-3
-6 -11 -11 -16 -11 -5 0 -4 6 3 14 14 16 24 13 13 -3z m-957 -10 c3 -8 -1 -12
-9 -9 -7 2 -15 10 -17 17 -3 8 1 12 9 9 7 -2 15 -10 17 -17z m830 -16 c-3 -3
-9 2 -12 12 -6 14 -5 15 5 6 7 -7 10 -15 7 -18z m-630 -53 c2 -7 -2 -10 -12
-6 -9 3 -16 11 -16 16 0 13 23 5 28 -10z m62 -14 c0 -15 -38 -8 -44 7 -7 18 5
20 23 3 10 -11 11 -9 6 7 -6 16 -5 17 4 5 6 -8 11 -18 11 -22z m40 -35 c3 -3
-8 -15 -24 -28 -23 -18 -40 -23 -84 -21 -66 1 -81 21 -20 25 27 1 49 9 61 22
17 18 49 19 67 2z m708 -36 c0 -13 -9 -29 -19 -35 -16 -10 -19 -9 -19 7 0 29
11 51 25 51 7 0 13 -11 13 -23z m-98 4 c0 -5 -9 -19 -20 -32 -17 -21 -19 -21
-13 -4 10 33 33 57 33 36z m-193 -53 c-3 -8 -6 -5 -6 6 -1 11 2 17 5 13 3 -3
4 -12 1 -19z m-507 -32 c0 -2 -7 -7 -16 -10 -8 -3 -12 -2 -9 4 6 10 25 14 25
6z m40 0 c0 -2 -7 -7 -16 -10 -8 -3 -12 -2 -9 4 6 10 25 14 25 6z m-513 -212
c-3 -3 -12 -4 -19 -1 -8 3 -5 6 6 6 11 1 17 -2 13 -5z m176 -11 c-7 -2 -21 -2
-30 0 -10 3 -4 5 12 5 17 0 24 -2 18 -5z m140 0 c-7 -2 -21 -2 -30 0 -10 3 -4
5 12 5 17 0 24 -2 18 -5z m-846 -39 c-3 -3 -12 -4 -19 -1 -8 3 -5 6 6 6 11 1
17 -2 13 -5z m481 -10 c25 -5 32 -11 32 -30 0 -45 -76 -204 -98 -204 -7 0 -62
212 -62 238 0 14 34 12 128 -4z m-191 -36 c-3 -8 -6 -5 -6 6 -1 11 2 17 5 13
3 -3 4 -12 1 -19z m-74 -585 c-7 -2 -19 -2 -25 0 -7 3 -2 5 12 5 14 0 19 -2
13 -5z"/>
<path d="M2800 3870 c0 -5 5 -10 10 -10 6 0 10 5 10 10 0 6 -4 10 -10 10 -5 0
-10 -4 -10 -10z"/>
<path d="M3470 3990 c0 -5 5 -10 10 -10 6 0 10 5 10 10 0 6 -4 10 -10 10 -5 0
-10 -4 -10 -10z"/>
<path d="M2635 3670 c-16 -7 -17 -9 -3 -9 9 -1 20 4 23 9 7 11 7 11 -20 0z"/>
<path d="M2679 3655 c-1 -3 -2 -8 -3 -12 -1 -5 -5 -14 -9 -20 -5 -7 -4 -13 2
-13 18 0 41 12 41 22 0 5 -6 6 -12 2 -9 -5 -9 -2 1 9 12 15 11 17 -3 17 -9 0
-17 -2 -17 -5z"/>
<path d="M2630 3600 c-9 -6 -10 -10 -3 -10 6 0 15 5 18 10 8 12 4 12 -15 0z"/>
<path d="M3065 3591 c-3 -5 -1 -12 5 -16 5 -3 10 1 10 9 0 18 -6 21 -15 7z"/>
<path d="M2968 3579 c-10 -5 -18 -13 -18 -17 0 -12 44 -10 52 2 18 26 -1 34
-34 15z"/>
<path d="M3022 3578 c-19 -19 -14 -30 8 -18 11 6 20 15 20 20 0 14 -14 12 -28
-2z"/>
<path d="M3026 3542 c-4 -6 -5 -16 -2 -21 3 -4 -2 -17 -10 -27 -15 -18 -15
-17 -9 9 5 25 4 27 -13 18 -11 -6 -23 -7 -27 -3 -5 4 -5 1 -1 -5 4 -8 1 -13
-7 -13 -8 0 -22 -11 -30 -23 -9 -13 -30 -30 -47 -37 -20 -8 -29 -18 -26 -27 4
-8 6 -21 6 -29 0 -8 6 -11 16 -7 14 5 15 3 4 -18 -12 -22 -12 -23 4 -10 9 8
15 20 12 28 -8 20 5 48 14 32 6 -9 18 -4 47 18 21 16 46 32 55 36 9 3 21 14
26 24 11 22 0 74 -12 55z"/>
<path d="M2560 3179 c0 -5 5 -7 10 -4 6 3 10 8 10 11 0 2 -4 4 -10 4 -5 0 -10
-5 -10 -11z"/>
<path d="M2736 3145 c-10 -8 -16 -19 -14 -25 2 -7 9 -6 22 3 10 8 17 19 15 25
-3 7 -10 6 -23 -3z"/>
<path d="M2767 3106 c-4 -10 -5 -21 -2 -24 9 -9 17 6 13 25 -3 17 -4 17 -11
-1z"/>
<path d="M3337 3363 c-4 -3 -7 -11 -7 -17 0 -6 5 -5 12 2 6 6 9 14 7 17 -3 3
-9 2 -12 -2z"/>
<path d="M3450 2603 c1 -15 28 -43 41 -43 10 1 9 4 -3 14 -10 7 -18 18 -18 25
0 6 -4 11 -10 11 -5 0 -10 -3 -10 -7z"/>
<path d="M3415 2560 c3 -5 8 -10 11 -10 2 0 4 5 4 10 0 6 -5 10 -11 10 -5 0
-7 -4 -4 -10z"/>
<path d="M3069 2358 c-1 -2 -3 -25 -5 -51 -4 -47 -2 -51 43 -99 27 -27 47 -56
45 -63 -1 -7 2 -16 8 -20 6 -3 7 0 4 9 -11 29 6 16 31 -24 17 -27 30 -38 40
-33 9 3 24 -2 35 -12 17 -15 21 -16 41 -1 l22 15 -29 12 c-16 7 -34 13 -41 15
-21 4 -41 19 -112 87 l-72 67 17 35 c13 28 21 34 36 29 19 -6 19 -5 1 15 -14
17 -59 30 -64 19z"/>
<path d="M3470 2216 c0 -31 14 -40 30 -21 10 12 10 18 0 30 -18 22 -30 18 -30
-9z"/>
<path d="M3415 1910 c3 -5 8 -10 11 -10 2 0 4 5 4 10 0 6 -5 10 -11 10 -5 0
-7 -4 -4 -10z"/>
<path d="M4378 2423 c-4 -14 0 -24 8 -27 15 -6 16 -1 5 28 -7 19 -8 19 -13 -1z"/>
<path d="M4395 2370 c3 -5 8 -10 11 -10 2 0 4 5 4 10 0 6 -5 10 -11 10 -5 0
-7 -4 -4 -10z"/>
<path d="M3335 1830 c-3 -6 1 -7 9 -4 18 7 21 14 7 14 -6 0 -13 -4 -16 -10z"/>
<path d="M2923 4342 c15 -9 27 -22 27 -28 0 -6 9 -14 21 -17 13 -3 19 -1 16 6
-4 15 -66 57 -81 57 -6 0 1 -8 17 -18z"/>
<path d="M2840 4336 c0 -2 7 -7 16 -10 8 -3 12 -2 9 4 -6 10 -25 14 -25 6z"/>
<path d="M3040 4330 c0 -12 28 -25 36 -17 3 3 -4 10 -15 17 -15 7 -21 7 -21 0z"/>
<path d="M2568 4293 c7 -3 16 -2 19 1 4 3 -2 6 -13 5 -11 0 -14 -3 -6 -6z"/>
<path d="M2461 4226 c-15 -18 -4 -24 34 -16 29 6 30 6 8 18 -27 15 -28 15 -42
-2z"/>
<path d="M2441 4189 c15 -9 83 -10 74 0 -3 2 -24 6 -47 7 -26 1 -36 -1 -27 -7z"/>
<path d="M2340 4185 c0 -1 17 -12 38 -22 25 -13 45 -17 62 -12 21 6 11 14 -13
10 -4 -1 -17 4 -28 10 -21 11 -59 20 -59 14z"/>
<path d="M2520 4160 c13 -8 13 -10 0 -14 -8 -3 -22 -5 -30 -4 -8 1 -28 0 -45
-1 -29 -2 -29 -2 -11 -16 23 -17 17 -19 -18 -5 -17 6 -26 6 -26 0 0 -12 45
-24 62 -17 18 6 34 4 31 -5 -2 -5 7 -8 19 -8 21 0 21 0 3 21 -19 20 -19 20 9
10 34 -13 60 -13 28 0 -24 9 -22 29 4 29 8 0 12 5 9 10 -3 6 -16 10 -28 10
-18 0 -19 -2 -7 -10z"/>
<path d="M2424 4075 c11 -8 26 -15 33 -15 22 0 14 8 -19 19 -30 10 -31 9 -14
-4z"/>
<path d="M2538 4053 c7 -3 16 -2 19 1 4 3 -2 6 -13 5 -11 0 -14 -3 -6 -6z"/>
<path d="M2338 3893 c7 -3 16 -2 19 1 4 3 -2 6 -13 5 -11 0 -14 -3 -6 -6z"/>
<path d="M2380 3884 c0 -9 40 -23 44 -15 3 5 -5 11 -19 13 -14 3 -25 4 -25 2z"/>
<path d="M2258 3838 c4 -4 21 -3 37 2 30 9 30 9 -7 7 -21 0 -34 -5 -30 -9z"/>
<path d="M4650 3690 c0 -5 5 -10 11 -10 5 0 7 5 4 10 -3 6 -8 10 -11 10 -2 0
-4 -4 -4 -10z"/>
<path d="M2033 3684 c-7 -3 -9 -12 -6 -20 4 -11 9 -12 19 -3 25 20 17 35 -13
23z"/>
<path d="M1203 3575 c0 -22 2 -30 4 -17 2 12 2 30 0 40 -3 9 -5 -1 -4 -23z"/>
<path d="M1735 3540 c-3 -5 3 -10 14 -10 12 0 21 5 21 10 0 6 -6 10 -14 10 -8
0 -18 -4 -21 -10z"/>
<path d="M2263 3538 c-18 -5 -33 -11 -33 -13 0 -6 62 4 69 11 10 9 -6 11 -36
2z"/>
<path d="M1214 3506 c4 -29 1 -30 -64 -14 -8 2 -5 0 8 -6 21 -9 32 -46 14 -46
-5 0 -32 -28 -61 -62 -42 -50 -64 -67 -109 -85 -31 -12 -49 -22 -40 -22 28 -1
137 50 143 68 7 21 68 86 123 131 23 19 42 39 42 44 0 6 -5 5 -12 -2 -17 -17
-36 -15 -42 6 -3 9 -4 4 -2 -12z"/>
<path d="M2198 3523 c7 -3 16 -2 19 1 4 3 -2 6 -13 5 -11 0 -14 -3 -6 -6z"/>
<path d="M2377 3519 c-9 -5 -22 -7 -27 -4 -6 3 -10 2 -10 -3 0 -19 26 -19 60
-1 26 13 30 18 15 18 -11 0 -28 -4 -38 -10z"/>
<path d="M1097 3509 c7 -7 15 -10 18 -7 3 3 -2 9 -12 12 -14 6 -15 5 -6 -5z"/>
<path d="M4702 3441 c10 -17 48 -41 63 -41 18 0 -2 21 -35 39 -38 20 -39 20
-28 2z"/>
<path d="M805 3415 c6 -34 8 -40 22 -75 17 -42 24 -80 15 -80 -5 0 -35 9 -67
20 -58 20 -105 26 -91 13 10 -10 104 -43 135 -47 14 -2 33 -16 44 -30 l19 -27
14 27 c18 33 18 44 0 44 -8 0 -17 11 -20 25 -4 14 -11 25 -17 25 -6 0 -8 4 -4
10 3 5 -8 35 -25 67 -23 43 -29 50 -25 28z"/>
<path d="M4660 3402 c15 -31 36 -38 55 -18 9 9 13 16 8 16 -5 0 -15 -6 -22
-12 -10 -11 -16 -8 -32 12 -19 23 -20 24 -9 2z"/>
<path d="M1561 3293 c30 -55 56 -92 48 -67 -10 29 -65 124 -72 124 -4 0 7 -26
24 -57z"/>
<path d="M4855 3320 c4 -6 10 -8 15 -5 4 3 13 -2 20 -10 7 -8 18 -15 24 -15
16 1 -34 40 -51 40 -8 0 -11 -5 -8 -10z"/>
<path d="M1698 3263 c-21 -24 -41 -64 -35 -69 3 -3 11 8 18 25 7 16 16 28 20
25 7 -4 22 26 16 32 -2 2 -11 -4 -19 -13z"/>
<path d="M925 3260 c3 -5 8 -10 11 -10 2 0 4 5 4 10 0 6 -5 10 -11 10 -5 0 -7
-4 -4 -10z"/>
<path d="M4610 3254 c0 -3 11 -20 24 -37 17 -22 24 -46 24 -76 1 -24 6 -49 11
-54 8 -8 11 -8 11 1 0 6 7 9 18 5 13 -5 12 -1 -5 16 -13 12 -23 26 -23 30 0
13 40 1 41 -13 0 -6 17 -24 36 -41 27 -22 33 -25 25 -10 -15 29 -78 95 -90 95
-14 0 -23 43 -11 51 6 3 4 11 -6 19 -13 11 -15 10 -10 -6 5 -15 3 -15 -11 4
-15 20 -34 30 -34 16z"/>
<path d="M1246 3224 c-5 -12 -2 -15 10 -10 8 3 18 6 20 6 2 0 4 5 4 10 0 16
-27 11 -34 -6z"/>
<path d="M1611 3194 c0 -11 3 -14 6 -6 3 7 2 16 -1 19 -3 4 -6 -2 -5 -13z"/>
<path d="M4528 3189 c-2 -13 -9 -23 -16 -21 -8 1 -11 -1 -8 -6 2 -4 1 -14 -5
-22 -6 -10 -9 -11 -9 -2 0 6 -7 12 -15 12 -9 0 -12 -6 -8 -16 4 -11 1 -15 -13
-12 -33 6 -27 -29 12 -67 27 -27 35 -31 31 -16 -3 14 -1 18 10 14 12 -5 14 -1
8 18 -7 24 -7 24 10 4 16 -20 16 -20 12 3 -3 12 -3 22 0 22 9 0 33 -29 33 -40
0 -19 52 -69 66 -63 17 6 27 33 11 30 -7 -1 -15 -6 -18 -11 -4 -4 -7 4 -8 18
-1 14 -2 34 -3 44 0 9 -7 25 -15 34 -8 9 -13 25 -11 35 3 15 7 13 21 -12 9
-16 16 -23 16 -15 0 18 -48 100 -50 85 -1 -5 -1 -13 0 -17 1 -10 -32 3 -41 15
-3 6 -8 -1 -10 -14z m60 -82 c8 -9 12 -20 9 -23 -3 -4 -2 -15 4 -25 5 -11 6
-19 1 -19 -5 0 -16 18 -25 41 -9 23 -21 38 -27 34 -6 -3 -10 3 -10 15 0 12 -4
18 -10 15 -14 -9 -12 9 2 23 10 10 15 6 26 -15 8 -16 21 -36 30 -46z"/>
<path d="M870 3178 c0 -2 9 -31 19 -65 12 -40 15 -65 9 -71 -5 -5 -8 -18 -5
-28 4 -16 5 -15 6 4 0 12 7 25 15 28 11 4 10 17 -7 70 -12 35 -25 64 -29 64
-4 0 -8 -1 -8 -2z"/>
<path d="M4753 3137 c0 -10 4 -17 9 -17 5 0 6 -4 3 -10 -3 -5 3 -15 15 -22 11
-7 20 -19 20 -26 0 -7 5 -10 12 -6 6 4 8 3 4 -4 -3 -6 11 -31 32 -55 30 -35
42 -43 55 -35 13 7 15 5 10 -8 -5 -14 -2 -16 15 -12 12 4 22 2 22 -4 0 -5 5
-6 10 -3 10 6 -9 -48 -52 -147 -20 -46 -48 -63 -63 -38 -3 6 -14 9 -23 9 -15
-1 -15 -2 1 -6 9 -2 17 -9 17 -14 0 -5 7 -9 15 -9 9 0 12 -6 9 -15 -10 -25
-76 44 -69 71 3 13 -2 27 -10 34 -12 10 -15 10 -15 0 0 -16 -13 -5 -16 13 -6
44 -71 148 -75 121 -1 -5 -5 7 -9 26 -5 28 -8 31 -14 17 -5 -10 -3 -31 5 -49
11 -26 14 -28 19 -13 8 22 14 13 35 -45 l14 -40 -26 6 c-23 6 -25 4 -18 -16 5
-15 4 -20 -4 -16 -23 15 -10 -20 20 -52 22 -24 28 -37 21 -44 -8 -8 -15 -1
-26 23 -9 22 -15 28 -15 15 -1 -16 -3 -17 -18 -5 -15 12 -16 12 -10 -3 3 -10
2 -18 -3 -18 -5 0 -10 10 -12 22 -2 13 -14 28 -28 35 -14 7 -49 41 -78 77 -29
37 -57 66 -63 66 -12 0 -7 -30 13 -77 6 -15 10 -33 9 -39 -2 -18 27 -37 49
-31 13 3 20 1 18 -6 -4 -18 35 -78 43 -66 4 7 11 5 21 -5 9 -8 19 -12 24 -8 5
4 2 -2 -6 -12 -8 -11 -10 -17 -4 -13 6 3 19 -8 29 -25 10 -18 12 -28 5 -23 -8
5 -11 3 -9 -4 3 -7 9 -13 14 -13 6 -1 20 -15 33 -32 12 -17 30 -34 40 -39 15
-7 15 -7 1 5 -16 14 -32 48 -22 48 3 0 12 -8 19 -17 21 -28 16 -2 -7 36 -11
18 -23 31 -26 27 -3 -3 0 -13 8 -23 9 -11 10 -14 1 -9 -6 4 -19 21 -28 38 -9
18 -11 27 -4 23 9 -5 10 -1 5 16 -7 23 -7 23 8 4 9 -11 12 -21 7 -23 -14 -5
62 -67 79 -65 9 1 11 0 4 -3 -7 -3 -9 -12 -6 -21 5 -12 3 -14 -7 -8 -10 6 -12
4 -7 -8 8 -22 -28 -117 -56 -148 -25 -28 -80 -98 -91 -116 -5 -10 -1 -11 16
-4 57 22 256 104 288 118 109 49 201 96 225 114 23 19 26 26 20 58 -10 51 -65
182 -120 281 -55 99 -63 110 -73 93 -6 -9 -12 -7 -22 8 -31 44 -50 62 -50 48
0 -7 -17 6 -38 29 -21 23 -44 42 -50 42 -7 0 -25 14 -40 32 -21 22 -29 26 -29
15z m-148 -381 c28 -23 28 -25 8 -23 -13 1 -23 4 -23 8 0 4 -7 15 -16 23 -24
25 -2 19 31 -8z m70 -36 c3 -5 1 -10 -4 -10 -6 0 -11 5 -11 10 0 6 2 10 4 10
3 0 8 -4 11 -10z m80 -10 c3 -6 -1 -7 -10 -4 -11 5 -14 2 -9 -12 6 -15 4 -16
-6 -7 -7 6 -9 16 -6 22 9 14 23 14 31 1z m75 -15 c7 -9 8 -15 2 -15 -5 0 -12
7 -16 15 -3 8 -4 15 -2 15 2 0 9 -7 16 -15z m-30 -57 c0 -6 -7 -5 -15 2 -8 7
-15 17 -15 22 0 6 7 5 15 -2 8 -7 15 -17 15 -22z"/>
<path d="M4935 3140 c3 -5 11 -10 16 -10 6 0 7 5 4 10 -3 6 -11 10 -16 10 -6
0 -7 -4 -4 -10z"/>
<path d="M4645 3087 c4 -18 2 -26 -4 -22 -7 3 -8 0 -5 -9 5 -12 9 -13 19 -3 7
7 10 17 5 22 -4 6 -10 17 -14 25 -3 8 -4 2 -1 -13z"/>
<path d="M4700 3056 c0 -8 4 -17 9 -20 5 -4 7 3 4 14 -6 23 -13 26 -13 6z"/>
<path d="M4730 3043 c0 -5 9 -21 20 -38 15 -23 20 -26 20 -11 0 14 3 16 13 7
18 -14 19 19 1 36 -14 14 -54 18 -54 6z"/>
<path d="M4810 2986 c0 -9 5 -16 10 -16 6 0 10 4 10 9 0 6 -4 13 -10 16 -5 3
-10 -1 -10 -9z"/>
<path d="M4721 2972 c-1 -19 28 -72 40 -72 6 0 2 12 -9 28 -10 15 -22 34 -25
42 -4 10 -6 11 -6 2z"/>
<path d="M4540 2956 c0 -24 22 -55 39 -53 20 1 19 9 -7 40 -14 16 -32 23 -32
13z"/>
<path d="M4772 2946 c10 -7 14 -17 10 -21 -4 -5 -1 -5 6 -1 8 5 24 -5 44 -26
18 -19 26 -24 20 -12 -16 31 -57 67 -78 70 -18 3 -18 2 -2 -10z"/>
<path d="M4840 2940 c0 -5 8 -6 17 -3 13 5 15 3 9 -12 -4 -11 -4 -16 0 -12 4
4 12 3 18 -2 6 -4 20 -11 31 -15 12 -4 7 4 -15 23 -35 30 -60 39 -60 21z"/>
<path d="M871 2924 c0 -11 3 -14 6 -6 3 7 2 16 -1 19 -3 4 -6 -2 -5 -13z"/>
<path d="M1692 2931 c-10 -6 -10 -10 2 -20 17 -14 36 -7 36 15 0 15 -18 18
-38 5z"/>
<path d="M4657 2893 c3 -7 9 -13 15 -13 5 0 7 4 4 9 -4 5 0 11 6 14 7 3 3 4
-8 4 -14 -1 -20 -6 -17 -14z"/>
<path d="M4786 2848 c3 -5 10 -6 15 -3 13 9 11 12 -6 12 -8 0 -12 -4 -9 -9z"/>
<path d="M846 2811 c-4 -6 -3 -18 2 -27 8 -14 10 -14 15 -2 7 19 -8 44 -17 29z"/>
<path d="M4846 2787 c3 -10 9 -15 12 -12 3 3 0 11 -7 18 -10 9 -11 8 -5 -6z"/>
<path d="M1153 2783 c9 -2 23 -2 30 0 6 3 -1 5 -18 5 -16 0 -22 -2 -12 -5z"/>
<path d="M755 2770 c-42 -11 -1 -11 50 -1 34 7 35 9 10 9 -16 0 -43 -4 -60 -8z"/>
<path d="M857 2679 c4 -13 8 -18 11 -10 2 7 -1 18 -6 23 -8 8 -9 4 -5 -13z"/>
<path d="M4513 2625 c18 -36 33 -59 35 -51 4 17 -31 87 -51 105 -9 7 -1 -17
16 -54z"/>
<path d="M4570 2661 c0 -5 7 -15 17 -22 15 -13 15 -12 4 9 -12 23 -21 28 -21
13z"/>
<path d="M4540 2657 c0 -15 41 -89 47 -84 3 3 -7 25 -21 49 -14 24 -26 39 -26
35z"/>
<path d="M4590 2612 c0 -5 7 -13 16 -16 22 -8 24 -8 24 6 0 6 -3 8 -7 5 -3 -4
-12 -2 -20 4 -8 7 -13 8 -13 1z"/>
<path d="M4656 2577 c3 -10 9 -15 12 -12 3 3 0 11 -7 18 -10 9 -11 8 -5 -6z"/>
<path d="M1484 2545 c11 -8 23 -15 28 -15 4 0 8 -7 8 -15 0 -8 -5 -15 -12 -15
-6 0 -9 -3 -5 -6 3 -3 15 1 27 9 21 14 20 15 -15 36 -41 24 -60 28 -31 6z"/>
<path d="M4680 2530 c6 -11 13 -20 16 -20 2 0 0 9 -6 20 -6 11 -13 20 -16 20
-2 0 0 -9 6 -20z"/>
<path d="M1854 2415 c11 -8 24 -15 30 -15 5 0 1 7 -10 15 -10 8 -23 14 -29 14
-5 0 -1 -6 9 -14z"/>
<path d="M1906 2369 c10 -11 28 -26 39 -31 14 -8 12 -2 -9 21 -33 34 -61 44
-30 10z"/>
<path d="M1494 2266 c-8 -22 1 -30 21 -19 15 9 15 11 1 22 -13 11 -17 10 -22
-3z"/>
<path d="M2050 2213 c-32 -12 -32 -13 -5 -7 17 3 35 7 42 8 7 1 15 4 18 7 9
10 -20 6 -55 -8z"/>
</g>
</svg>
